<svg width="24" height="24" viewBox="0 0 24 24" fill="none" xmlns="http://www.w3.org/2000/svg">
<path d="M3 8H1V2H3V8ZM1 22H3V16H1V22ZM2 10C1.60444 10 1.21776 10.1173 0.88886 10.3371C0.559962 10.5568 0.303617 10.8692 0.152242 11.2346C0.000866562 11.6001 -0.0387401 12.0022 0.0384303 12.3902C0.115601 12.7781 0.306082 13.1345 0.585787 13.4142C0.865492 13.6939 1.22186 13.8844 1.60982 13.9616C1.99778 14.0387 2.39992 13.9991 2.76537 13.8478C3.13082 13.6964 3.44318 13.44 3.66294 13.1111C3.8827 12.7822 4 12.3956 4 12C3.99842 11.4701 3.7872 10.9623 3.41247 10.5875C3.03774 10.2128 2.52995 10.0016 2 10ZM23 6V18C23.0009 18.2629 22.9498 18.5234 22.8496 18.7665C22.7495 19.0095 22.6022 19.2304 22.4163 19.4163C22.2304 19.6022 22.0095 19.7495 21.7665 19.8496C21.5234 19.9498 21.2629 20.0009 21 20H9C8.46957 20 7.96086 19.7893 7.58579 19.4142C7.21071 19.0391 7 18.5304 7 18V14L5 12L7 10V6C7 5.46957 7.21071 4.96086 7.58579 4.58579C7.96086 4.21071 8.46957 4 9 4H21C21.2629 3.99907 21.5234 4.05017 21.7665 4.15036C22.0095 4.25054 22.2304 4.39782 22.4163 4.58372C22.6022 4.76963 22.7495 4.99047 22.8496 5.23354C22.9498 5.47661 23.0009 5.7371 23 6ZM18.75 10.33L17.59 8.92L14 12.5L12.41 10.92L11.25 12.08L14 15.08L18.75 10.33Z" fill="#737373"/>
</svg>
