<svg width="24" height="24" viewBox="0 0 24 24" fill="none" xmlns="http://www.w3.org/2000/svg">
<path d="M19.0711 4.92893C20.4696 6.32746 21.422 8.10929 21.8078 10.0491C22.1937 11.9889 21.9957 13.9996 21.2388 15.8268C20.4819 17.6541 19.2002 19.2159 17.5557 20.3147C15.9112 21.4135 13.9778 22 12 22C10.0222 22 8.08879 21.4135 6.4443 20.3147C4.79981 19.2159 3.51808 17.6541 2.76121 15.8268C2.00433 13.9996 1.8063 11.9889 2.19215 10.0491C2.578 8.10929 3.53041 6.32746 4.92894 4.92893C5.85693 3.99929 6.95913 3.26176 8.17246 2.75855C9.3858 2.25533 10.6865 1.99632 12 1.99632C13.3135 1.99632 14.6142 2.25533 15.8275 2.75855C17.0409 3.26176 18.1431 3.99929 19.0711 4.92893ZM18.074 11.003L12.997 11.003L12.997 5.92595H11.003L11.003 11.003L5.92595 11.003L5.92596 12.997L11.003 12.997L11.003 18.074H12.997L12.997 12.997L18.074 12.997L18.074 11.003Z" fill="#737373"/>
</svg>
