<svg width="24" height="24" viewBox="0 0 24 24" fill="none" xmlns="http://www.w3.org/2000/svg">
<path d="M20.71 4.63201L19.37 3.29201C19.1826 3.10576 18.9292 3.00122 18.665 3.00122C18.4008 3.00122 18.1474 3.10576 17.96 3.29201L9 12.252L11.75 15.002L20.71 6.04201C20.8962 5.85465 21.0008 5.6012 21.0008 5.33701C21.0008 5.07283 20.8962 4.81938 20.71 4.63201ZM7 14.002C6.20435 14.002 5.44129 14.3181 4.87868 14.8807C4.31607 15.4433 4 16.2064 4 17.002C3.9925 17.5301 3.77938 18.0345 3.40592 18.4079C3.03246 18.7814 2.5281 18.9945 2 19.002C2.47543 19.6125 3.08138 20.109 3.77348 20.455C4.46559 20.8011 5.22633 20.988 6 21.002C7.06087 21.002 8.07828 20.5806 8.82843 19.8304C9.57857 19.0803 10 18.0629 10 17.002C10 16.2064 9.68393 15.4433 9.12132 14.8807C8.55871 14.3181 7.79565 14.002 7 14.002Z" fill="#737373"/>
</svg>
