<svg width="24" height="24" viewBox="0 0 24 24" fill="none" xmlns="http://www.w3.org/2000/svg">
<path fill-rule="evenodd" clip-rule="evenodd" d="M17.4749 10.9749C16.8185 11.6313 15.9283 12 15 12C14.48 11.998 13.9672 11.8783 13.5 11.65C14.1507 10.7285 14.5001 9.62809 14.5001 8.5C14.5001 7.37191 14.1507 6.27151 13.5 5.35C13.9672 5.12165 14.48 5.002 15 5C15.9283 5 16.8185 5.36875 17.4749 6.02513C18.1313 6.6815 18.5 7.57174 18.5 8.5C18.5 9.42826 18.1313 10.3185 17.4749 10.9749ZM10.9445 11.4101C10.3689 11.7947 9.69223 12 9 12C8.07174 12 7.1815 11.6313 6.52513 10.9749C5.86875 10.3185 5.5 9.42826 5.5 8.5C5.5 7.80777 5.70527 7.13108 6.08986 6.55551C6.47444 5.97993 7.02107 5.53133 7.66061 5.26642C8.30015 5.00152 9.00388 4.9322 9.68282 5.06725C10.3617 5.2023 10.9854 5.53564 11.4749 6.02513C11.9644 6.51461 12.2977 7.13825 12.4327 7.81719C12.5678 8.49612 12.4985 9.19985 12.2336 9.83939C11.9687 10.4789 11.5201 11.0256 10.9445 11.4101ZM9.83335 7.2528C9.58668 7.08798 9.29667 7 9 7C8.60218 7 8.22064 7.15804 7.93934 7.43934C7.65804 7.72065 7.5 8.10218 7.5 8.5C7.5 8.79667 7.58797 9.08668 7.7528 9.33336C7.91762 9.58003 8.15189 9.77229 8.42597 9.88582C8.70006 9.99935 9.00166 10.0291 9.29264 9.97118C9.58361 9.9133 9.85088 9.77044 10.0607 9.56066C10.2704 9.35088 10.4133 9.08361 10.4712 8.79264C10.5291 8.50167 10.4994 8.20007 10.3858 7.92598C10.2723 7.65189 10.08 7.41762 9.83335 7.2528ZM2 17.25C2 14.92 6.66 13.75 9 13.75C11.34 13.75 16 14.92 16 17.25V19H2V17.25ZM9 15.75C7.36584 15.765 5.7623 16.1952 4.34 17H13.66C12.2377 16.1952 10.6342 15.765 9 15.75ZM16.04 13.81C16.6248 14.1776 17.1097 14.684 17.4516 15.2841C17.7936 15.8842 17.9819 16.5595 18 17.25V19H22V17.25C22 15.23 18.5 14.08 16.04 13.81Z" fill="#737373"/>
</svg>
