<svg width="24" height="24" viewBox="0 0 24 24" fill="none" xmlns="http://www.w3.org/2000/svg">
<path d="M21.1666 10.3333H16.1666C15.7064 10.3333 15.3333 10.7064 15.3333 11.1667C15.3333 11.6269 15.7064 12 16.1666 12H20.3333V20.3334H11.9999V16.1667C11.9999 15.7065 11.6268 15.3334 11.1666 15.3334C10.7064 15.3334 10.3333 15.7065 10.3333 16.1667V21.1667C10.3333 21.6275 10.7066 22 11.1666 22H21.1666C21.6274 22 21.9999 21.6275 21.9999 21.1667V11.1667C22 10.7058 21.6275 10.3333 21.1666 10.3333Z" fill="#737373"/>
<path d="M14.4326 19.8284L14.9309 18.6667H17.4034L17.9017 19.8284L19.4334 19.1717L16.9334 13.3383C16.8017 13.0317 16.5001 12.8333 16.1667 12.8333C15.8342 12.8333 15.5317 13.0317 15.4009 13.3383L12.9009 19.1717L14.4326 19.8284ZM16.1667 15.7817L16.6892 17H15.6451L16.1667 15.7817Z" fill="#737373"/>
<path d="M7 8.15082L7.83332 8.5675L8.66668 8.15082V7H7V8.15082Z" fill="#737373"/>
<path d="M13.6667 3C13.6667 2.44772 13.219 2 12.6667 2H3C2.44772 2 2 2.44772 2 3V12.6667C2 13.219 2.44772 13.6667 3 13.6667H12.6667C13.219 13.6667 13.6667 13.219 13.6667 12.6667V3ZM12 7.00001H10.3333V8.66669C10.3333 8.98251 10.155 9.27169 9.87251 9.41169L9.69669 9.50001L11.5392 10.4208L10.7934 11.9117L7.83337 10.4317L4.87254 11.9117L4.12672 10.4208L5.97001 9.50001L5.79419 9.41169C5.51169 9.27087 5.33337 8.98169 5.33337 8.66669V7.00001H3.66668V5.33333H7.00001V3.66668H8.66669V5.33337H12V7.00001Z" fill="#737373"/>
<path d="M21.1667 4.50006H18.1783L19.2558 3.42255L18.0775 2.24423L14.9883 5.33342L18.0775 8.4226L19.2558 7.24428L18.1783 6.16678H20.3333V8.66678H22V5.33338C22 4.87256 21.6275 4.50006 21.1667 4.50006Z" fill="#737373"/>
<path d="M5.57751 16.7559L6.65501 17.8334H3.66668V15.3334H2V18.6667C2 19.1276 2.37332 19.5001 2.83332 19.5001H6.65501L5.57751 20.5776L6.75583 21.7559L9.84501 18.6667L6.75583 15.5775L5.57751 16.7559Z" fill="#737373"/>
</svg>
