<svg width="24" height="24" viewBox="0 0 24 24" fill="none" xmlns="http://www.w3.org/2000/svg">
<path d="M3 22.0006H21.2574V20.0348H6.95009V3.97834L17.2116 3.96637V14.7975H19.1756V2.98259C19.1731 2.72266 19.0687 2.47409 18.8848 2.29034C18.7009 2.10659 18.4523 2.00234 18.1924 2L5.96691 2.01436C5.70657 2.01468 5.45702 2.11836 5.2731 2.30261C5.08918 2.48687 4.98596 2.73661 4.98612 2.99695V20.0348H3V22.0006Z" fill="#737373"/>
<path d="M17.2117 16.567H19.1756V18.3976H17.2117V16.567Z" fill="#737373"/>
<path d="M9.70825 6.51617H14.389V8.48135H9.70825V6.51617Z" fill="#737373"/>
<path d="M9.70825 10.9845H14.389V12.9497H9.70825V10.9845Z" fill="#737373"/>
<path d="M9.70825 15.4534H14.389V17.4186H9.70825V15.4534Z" fill="#737373"/>
</svg>
