<svg width="24" height="24" viewBox="0 0 24 24" fill="none" xmlns="http://www.w3.org/2000/svg">
<path d="M11.0011 15L13.0011 15L13.0011 17L11.0011 17L11.0011 15ZM11.0011 7.00003L13.0011 7.00003L13.0011 13L11.0011 13L11.0011 7.00003ZM12.0011 22C14.4836 21.9999 16.8773 21.0763 18.7165 19.4091C20.5558 17.7419 21.7092 15.4501 21.9524 12.9796C22.1955 10.509 21.5111 8.03639 20.0322 6.04254C18.5533 4.0487 16.3856 2.67622 13.9508 2.19206C11.516 1.7079 8.98815 2.14667 6.85894 3.42304C4.72973 4.69941 3.15139 6.72211 2.4309 9.09772C1.71041 11.4733 1.89929 14.032 2.96081 16.2761C4.02232 18.5201 5.88058 20.2891 8.17413 21.239C9.38745 21.7415 10.6879 22.0001 12.0011 22Z" fill="#737373"/>
</svg>
