<svg width="24" height="24" viewBox="0 0 24 24" fill="none" xmlns="http://www.w3.org/2000/svg">
<path d="M12 21.9987C11.4904 22.0176 10.994 21.8341 10.6192 21.4883C10.2445 21.1424 10.0218 20.6623 10 20.1529H14C13.9782 20.6623 13.7555 21.1424 13.3808 21.4883C13.006 21.8341 12.5096 22.0176 12 21.9987ZM20 19.231H4V18.3071L6 16.4614V11.846C5.97482 10.5026 6.38684 9.18741 7.174 8.09845C7.99161 7.02139 9.17428 6.27974 10.5 6.01272V5.3868C10.5161 5.0045 10.683 4.64413 10.964 4.38445C11.2451 4.12477 11.6176 3.9869 12 4.00098C12.3824 3.9869 12.7549 4.12477 13.036 4.38445C13.317 4.64413 13.4839 5.0045 13.5 5.3868V6.01472C14.8184 6.29798 15.9939 7.03913 16.8177 8.10664C17.6415 9.17415 18.0604 10.499 18 11.846V16.4614L20 18.3071V19.229V19.231Z" fill="black"/>
</svg>
