<svg width="24" height="24" viewBox="0 0 24 24" fill="none" xmlns="http://www.w3.org/2000/svg">
<path d="M9.16667 11.1499H7.27754V12.8488H9.16667V11.1499ZM12.9442 11.1499H11.0558V12.8488H12.9449L12.9442 11.1499ZM16.7217 11.1499H14.8333V12.8488H16.7225L16.7217 11.1499ZM18.6109 5.19955H17.6667V3.5H15.7783V5.20019H8.22246V3.5H6.33333V5.20019H5.38913C5.14108 5.20011 4.89544 5.24401 4.66624 5.32938C4.43705 5.41475 4.22879 5.53993 4.05336 5.69775C3.87792 5.85558 3.73876 6.04296 3.64382 6.2492C3.54887 6.45544 3.5 6.6765 3.5 6.89974V18.7998C3.5 19.2507 3.69903 19.6832 4.05331 20.002C4.40759 20.3209 4.8881 20.5 5.38913 20.5H18.6116C19.1125 20.4998 19.5928 20.3206 19.9469 20.0018C20.3011 19.683 20.5 19.2506 20.5 18.7998V6.89974C20.5 6.44882 20.301 6.01637 19.9467 5.69752C19.5924 5.37868 19.1119 5.19955 18.6109 5.19955ZM18.6109 18.7998H5.38913V9.451H18.6116L18.6109 18.7998Z" fill="#737373"/>
</svg>
