<svg width="24" height="24" viewBox="0 0 24 24" fill="none" xmlns="http://www.w3.org/2000/svg">
<path fill-rule="evenodd" clip-rule="evenodd" d="M10.5 4.5C9.67157 4.5 9 5.17157 9 6H5.25C4.00736 6 3 7.00736 3 8.25V17.25C3 18.4926 4.00736 19.5 5.25 19.5H18.75C19.9926 19.5 21 18.4926 21 17.25V8.25C21 7.00736 19.9926 6 18.75 6H15C15 5.17157 14.3284 4.5 13.5 4.5H10.5ZM10.5 7.5H5.25C4.83579 7.5 4.5 7.83579 4.5 8.25V17.25C4.5 17.6642 4.83579 18 5.25 18H18.75C19.1642 18 19.5 17.6642 19.5 17.25V8.25C19.5 7.83579 19.1642 7.5 18.75 7.5H13.5H10.5ZM16.5 9.75C16.5 9.33579 16.8358 9 17.25 9C17.6642 9 18 9.33579 18 9.75C18 10.1642 17.6642 10.5 17.25 10.5C16.8358 10.5 16.5 10.1642 16.5 9.75ZM14.25 12.75C14.25 13.9926 13.2426 15 12 15C10.7574 15 9.75 13.9926 9.75 12.75C9.75 11.5074 10.7574 10.5 12 10.5C13.2426 10.5 14.25 11.5074 14.25 12.75ZM15.75 12.75C15.75 14.8211 14.0711 16.5 12 16.5C9.92893 16.5 8.25 14.8211 8.25 12.75C8.25 10.6789 9.92893 9 12 9C14.0711 9 15.75 10.6789 15.75 12.75Z" fill="#737373"/>
</svg>
