<svg width="24" height="24" viewBox="0 0 24 24" fill="none" xmlns="http://www.w3.org/2000/svg">
<path d="M12 2C13.9778 2 15.9112 2.58649 17.5557 3.68531C19.2002 4.78412 20.4819 6.34591 21.2388 8.17317C21.9957 10.0004 22.1937 12.0111 21.8078 13.9509C21.422 15.8907 20.4696 17.6725 19.0711 19.0711C17.6725 20.4696 15.8907 21.422 13.9509 21.8078C12.0111 22.1937 10.0004 21.9957 8.17317 21.2388C6.34591 20.4819 4.78412 19.2002 3.68531 17.5557C2.58649 15.9112 2 13.9778 2 12C1.99883 10.6865 2.25669 9.38557 2.75883 8.17178C3.26096 6.958 3.99751 5.85515 4.92633 4.92633C5.85515 3.99751 6.958 3.26096 8.17178 2.75883C9.38557 2.25669 10.6865 1.99883 12 2ZM15.59 7L12 10.59L8.41 7L7 8.41L10.59 12L7 15.59L8.41 17L12 13.41L15.59 17L17 15.59L13.41 12L17 8.41L15.59 7Z" fill="#737373"/>
</svg>
