<svg width="24" height="24" viewBox="0 0 24 24" fill="none" xmlns="http://www.w3.org/2000/svg">
<path d="M19.35 10.04C19.0492 8.51624 18.2823 7.12363 17.1553 6.05485C16.0283 4.98608 14.597 4.29398 13.0594 4.07433C11.5219 3.85468 9.95403 4.11832 8.57286 4.82879C7.1917 5.53926 6.06548 6.66142 5.35005 8.04002C3.83226 8.21586 2.43874 8.96412 1.45373 10.1322C0.46873 11.3002 -0.0335419 12.8001 0.0493758 14.3258C0.132293 15.8514 0.794153 17.288 1.89994 18.3424C3.00574 19.3969 4.47215 19.9897 6.00005 20H19C20.2928 20.0011 21.5355 19.5001 22.466 18.6025C23.3964 17.705 23.9419 16.4811 23.9873 15.1891C24.0327 13.8971 23.5745 12.638 22.7093 11.6774C21.8442 10.7167 20.6397 10.1297 19.35 10.04ZM19 18H6.00005C4.9855 17.9882 4.01337 17.5912 3.2805 16.8895C2.54764 16.1878 2.10881 15.2339 2.05288 14.2208C1.99696 13.2077 2.3281 12.2112 2.97927 11.4331C3.63044 10.655 4.55297 10.1535 5.56005 10.03L6.63005 9.92002L7.13005 8.97002C7.65252 7.95786 8.47704 7.13338 9.48923 6.61097C10.5014 6.08855 11.6511 5.89409 12.7788 6.05456C13.9065 6.21503 14.9563 6.72248 15.7826 7.50651C16.6089 8.29054 17.1707 9.31229 17.39 10.43L17.69 11.93L19.22 12.04C19.9965 12.0885 20.7233 12.4385 21.2454 13.0152C21.7675 13.5919 22.0437 14.3498 22.015 15.1272C21.9863 15.9047 21.655 16.6401 21.0918 17.1768C20.5286 17.7135 19.778 18.0089 19 18Z" fill="#737373"/>
<path d="M8 13H10.55V16H13.45V13H16L12 9L8 13Z" fill="#737373"/>
</svg>
