<svg width="24" height="24" viewBox="0 0 24 24" fill="none" xmlns="http://www.w3.org/2000/svg">
<path fill-rule="evenodd" clip-rule="evenodd" d="M17.1431 18.5573C15.7267 19.6699 13.9408 20.3333 12 20.3333C7.39763 20.3333 3.66667 16.6024 3.66667 12C3.66667 10.0592 4.33015 8.27333 5.44266 6.85688L17.1431 18.5573ZM18.5573 17.1431L6.85688 5.44266C8.27333 4.33015 10.0592 3.66667 12 3.66667C16.6024 3.66667 20.3333 7.39763 20.3333 12C20.3333 13.9408 19.6699 15.7267 18.5573 17.1431ZM22 12C22 17.5228 17.5228 22 12 22C6.47715 22 2 17.5228 2 12C2 6.47715 6.47715 2 12 2C17.5228 2 22 6.47715 22 12Z" fill="#737373"/>
</svg>
