<svg width="24" height="24" viewBox="0 0 24 24" fill="none" xmlns="http://www.w3.org/2000/svg">
<path d="M7.41667 14.7L11.5417 9.3L14.75 13.35L17.0417 10.65L20.25 14.7H7.41667ZM21.1667 4.8H13.8333L12 3H6.5C6.01377 3 5.54745 3.18964 5.20364 3.52721C4.85982 3.86477 4.66667 4.32261 4.66667 4.8V15.6C4.66667 16.0774 4.85982 16.5352 5.20364 16.8728C5.54745 17.2104 6.01377 17.4 6.5 17.4H21.1667C21.6529 17.4 22.1192 17.2104 22.463 16.8728C22.8068 16.5352 23 16.0774 23 15.6V6.6C23 6.12261 22.8068 5.66477 22.463 5.32721C22.1192 4.98964 21.6529 4.8 21.1667 4.8ZM2.83333 6.6H1V19.2C1 19.6774 1.19315 20.1352 1.53697 20.4728C1.88079 20.8104 2.3471 21 2.83333 21H19.3333V19.2H2.83333V6.6Z" fill="#737373"/>
</svg>
