<svg width="24" height="24" viewBox="0 0 24 24" fill="none" xmlns="http://www.w3.org/2000/svg">
<path d="M17.913 22.17H6.08696C5.53346 22.17 5.00264 21.9502 4.61126 21.5589C4.21988 21.1676 4 20.6368 4 20.0834V4.08655C4 3.53316 4.21988 3.00244 4.61126 2.61114C5.00264 2.21983 5.53346 2 6.08696 2H15.8261L20 6.1731V20.0834C20 20.6368 19.7801 21.1676 19.3887 21.5589C18.9974 21.9502 18.4665 22.17 17.913 22.17Z" fill="#CFD2FC"/>
<path d="M4 16.6058H20V20.0834C20 20.6368 19.7801 21.1675 19.3887 21.5588C18.9974 21.9501 18.4665 22.17 17.913 22.17H6.08696C5.53346 22.17 5.00264 21.9501 4.61126 21.5588C4.21988 21.1675 4 20.6368 4 20.0834V16.6058Z" fill="#5153FF"/>
<path d="M20.0001 6.1731H17.9131C17.3596 6.1731 16.8288 5.95327 16.4374 5.56197C16.046 5.17066 15.8262 4.63994 15.8262 4.08655V2L20.0001 6.1731Z" fill="#8690FA"/>
<path d="M17.2173 8.60744H9.56511C9.47286 8.60744 9.38439 8.57081 9.31916 8.50559C9.25393 8.44037 9.21729 8.35192 9.21729 8.25968C9.21729 8.16745 9.25393 8.079 9.31916 8.01378C9.38439 7.94856 9.47286 7.91193 9.56511 7.91193H17.2173C17.3095 7.91193 17.398 7.94856 17.4632 8.01378C17.5285 8.079 17.5651 8.16745 17.5651 8.25968C17.5651 8.35192 17.5285 8.44037 17.4632 8.50559C17.398 8.57081 17.3095 8.60744 17.2173 8.60744Z" fill="#8690FA"/>
<path d="M13.0435 9.99843H6.78264C6.69039 9.99843 6.60192 9.9618 6.53669 9.89658C6.47146 9.83136 6.43481 9.74291 6.43481 9.65068C6.43481 9.55844 6.47146 9.46999 6.53669 9.40477C6.60192 9.33956 6.69039 9.30292 6.78264 9.30292H13.0435C13.1358 9.30292 13.2242 9.33956 13.2895 9.40477C13.3547 9.46999 13.3913 9.55844 13.3913 9.65068C13.3913 9.74291 13.3547 9.83136 13.2895 9.89658C13.2242 9.9618 13.1358 9.99843 13.0435 9.99843Z" fill="#8690FA"/>
<path d="M17.2175 11.3895H11.6523C11.56 11.3895 11.4715 11.3528 11.4063 11.2876C11.3411 11.2224 11.3044 11.134 11.3044 11.0417C11.3044 10.9495 11.3411 10.861 11.4063 10.7958C11.4715 10.7306 11.56 10.694 11.6523 10.694H17.2175C17.3097 10.694 17.3982 10.7306 17.4634 10.7958C17.5287 10.861 17.5653 10.9495 17.5653 11.0417C17.5653 11.134 17.5287 11.2224 17.4634 11.2876C17.3982 11.3528 17.3097 11.3895 17.2175 11.3895Z" fill="#8690FA"/>
<path d="M14.7826 12.7805H6.78264C6.69039 12.7805 6.60192 12.7439 6.53669 12.6787C6.47146 12.6135 6.43481 12.525 6.43481 12.4328C6.43481 12.3405 6.47146 12.2521 6.53669 12.1869C6.60192 12.1217 6.69039 12.085 6.78264 12.085H14.7826C14.8749 12.085 14.9634 12.1217 15.0286 12.1869C15.0938 12.2521 15.1305 12.3405 15.1305 12.4328C15.1305 12.525 15.0938 12.6135 15.0286 12.6787C14.9634 12.7439 14.8749 12.7805 14.7826 12.7805Z" fill="#8690FA"/>
<path d="M8.17394 8.60744H6.78264C6.69039 8.60744 6.60192 8.57081 6.53669 8.50559C6.47146 8.44037 6.43481 8.35192 6.43481 8.25968C6.43481 8.16745 6.47146 8.079 6.53669 8.01378C6.60192 7.94856 6.69039 7.91193 6.78264 7.91193H8.17394C8.26619 7.91193 8.35467 7.94856 8.4199 8.01378C8.48513 8.079 8.52177 8.16745 8.52177 8.25968C8.52177 8.35192 8.48513 8.44037 8.4199 8.50559C8.35467 8.57081 8.26619 8.60744 8.17394 8.60744Z" fill="#8690FA"/>
<path d="M17.2173 9.99843H14.4347C14.3425 9.99843 14.254 9.9618 14.1888 9.89658C14.1236 9.83136 14.0869 9.74291 14.0869 9.65068C14.0869 9.55844 14.1236 9.46999 14.1888 9.40477C14.254 9.33956 14.3425 9.30292 14.4347 9.30292H17.2173C17.3096 9.30292 17.3981 9.33956 17.4633 9.40477C17.5285 9.46999 17.5652 9.55844 17.5652 9.65068C17.5652 9.74291 17.5285 9.83136 17.4633 9.89658C17.3981 9.9618 17.3096 9.99843 17.2173 9.99843Z" fill="#8690FA"/>
<path d="M10.2609 11.3895H6.78264C6.69039 11.3895 6.60192 11.3528 6.53669 11.2876C6.47146 11.2224 6.43481 11.134 6.43481 11.0417C6.43481 10.9495 6.47146 10.861 6.53669 10.7958C6.60192 10.7306 6.69039 10.694 6.78264 10.694H10.2609C10.3532 10.694 10.4416 10.7306 10.5069 10.7958C10.5721 10.861 10.6087 10.9495 10.6087 11.0417C10.6087 11.134 10.5721 11.2224 10.5069 11.2876C10.4416 11.3528 10.3532 11.3895 10.2609 11.3895Z" fill="#8690FA"/>
<path d="M17.2175 12.7805H16.174C16.0817 12.7805 15.9933 12.7439 15.928 12.6787C15.8628 12.6135 15.8262 12.525 15.8262 12.4328C15.8262 12.3405 15.8628 12.2521 15.928 12.1869C15.9933 12.1217 16.0817 12.085 16.174 12.085H17.2175C17.3097 12.085 17.3982 12.1217 17.4634 12.1869C17.5287 12.2521 17.5653 12.3405 17.5653 12.4328C17.5653 12.525 17.5287 12.6135 17.4634 12.6787C17.3982 12.7439 17.3097 12.7805 17.2175 12.7805Z" fill="#8690FA"/>
<path d="M8.8696 14.1715H6.78264C6.69039 14.1715 6.60192 14.1349 6.53669 14.0697C6.47146 14.0045 6.43481 13.916 6.43481 13.8238C6.43481 13.7315 6.47146 13.6431 6.53669 13.5779C6.60192 13.5127 6.69039 13.476 6.78264 13.476H8.8696C8.96185 13.476 9.05032 13.5127 9.11555 13.5779C9.18078 13.6431 9.21742 13.7315 9.21742 13.8238C9.21742 13.916 9.18078 14.0045 9.11555 14.0697C9.05032 14.1349 8.96185 14.1715 8.8696 14.1715Z" fill="#8690FA"/>
<path d="M10.2609 7.21639H6.78264C6.69039 7.21639 6.60192 7.17975 6.53669 7.11454C6.47146 7.04932 6.43481 6.96086 6.43481 6.86863C6.43481 6.7764 6.47146 6.68795 6.53669 6.62273C6.60192 6.55751 6.69039 6.52087 6.78264 6.52087H10.2609C10.3532 6.52087 10.4416 6.55751 10.5069 6.62273C10.5721 6.68795 10.6087 6.7764 10.6087 6.86863C10.6087 6.96086 10.5721 7.04932 10.5069 7.11454C10.4416 7.17975 10.3532 7.21639 10.2609 7.21639Z" fill="#8690FA"/>
<path d="M13.7392 14.1715H10.2609C10.1687 14.1715 10.0802 14.1349 10.015 14.0697C9.94973 14.0045 9.91309 13.916 9.91309 13.8238C9.91309 13.7315 9.94973 13.6431 10.015 13.5779C10.0802 13.5127 10.1687 13.476 10.2609 13.476H13.7392C13.8314 13.476 13.9199 13.5127 13.9851 13.5779C14.0504 13.6431 14.087 13.7315 14.087 13.8238C14.087 13.916 14.0504 14.0045 13.9851 14.0697C13.9199 14.1349 13.8314 14.1715 13.7392 14.1715Z" fill="#8690FA"/>
<path d="M17.2175 14.1715H15.1305C15.0383 14.1715 14.9498 14.1349 14.8846 14.0697C14.8194 14.0045 14.7827 13.916 14.7827 13.8238C14.7827 13.7315 14.8194 13.6431 14.8846 13.5779C14.9498 13.5127 15.0383 13.476 15.1305 13.476H17.2175C17.3097 13.476 17.3982 13.5127 17.4634 13.5779C17.5287 13.6431 17.5653 13.7315 17.5653 13.8238C17.5653 13.916 17.5287 14.0045 17.4634 14.0697C17.3982 14.1349 17.3097 14.1715 17.2175 14.1715Z" fill="#8690FA"/>
<path d="M8.174 17.6491C8.08175 17.6491 7.99328 17.6857 7.92805 17.751C7.86282 17.8162 7.82617 17.9046 7.82617 17.9969V20.7789C7.82617 20.8712 7.86282 20.9596 7.92805 21.0248C7.99328 21.0901 8.08175 21.1267 8.174 21.1267C8.63524 21.1267 9.0776 20.9435 9.40375 20.6174C9.7299 20.2913 9.91313 19.8491 9.91313 19.3879C9.91313 18.9267 9.7299 18.4845 9.40375 18.1584C9.0776 17.8323 8.63524 17.6491 8.174 17.6491ZM8.52182 20.3716V18.4042C8.72532 18.4761 8.90151 18.6093 9.02613 18.7855C9.15075 18.9617 9.21767 19.1721 9.21767 19.3879C9.21767 19.6037 9.15075 19.8142 9.02613 19.9903C8.90151 20.1665 8.72532 20.2997 8.52182 20.3716Z" fill="white"/>
<path d="M11.9999 17.6491C11.2328 17.6491 10.6086 18.4291 10.6086 19.3879C10.6086 20.3467 11.2328 21.1267 11.9999 21.1267C12.7671 21.1267 13.3913 20.3467 13.3913 19.3879C13.3913 18.4291 12.7671 17.6491 11.9999 17.6491ZM11.9999 20.4312C11.6229 20.4312 11.3043 19.9534 11.3043 19.3879C11.3043 18.8224 11.6229 18.3446 11.9999 18.3446C12.377 18.3446 12.6956 18.8224 12.6956 19.3879C12.6956 19.9534 12.377 20.4312 11.9999 20.4312Z" fill="white"/>
<path d="M15.4782 18.3446C15.5473 18.345 15.6155 18.3607 15.6778 18.3906C15.7612 18.4299 15.8569 18.4345 15.9437 18.4033C16.0305 18.3721 16.1014 18.3077 16.1407 18.2243C16.18 18.1408 16.1846 18.0452 16.1534 17.9584C16.1222 17.8716 16.0578 17.8007 15.9743 17.7614C15.8193 17.6876 15.6499 17.6493 15.4782 17.6491C14.711 17.6491 14.0869 18.4291 14.0869 19.3879C14.0869 20.3467 14.711 21.1267 15.4782 21.1267C15.6499 21.1265 15.8194 21.0882 15.9743 21.0144C16.0157 20.9949 16.0527 20.9675 16.0835 20.9337C16.1142 20.8999 16.1379 20.8604 16.1534 20.8174C16.1688 20.7744 16.1757 20.7288 16.1735 20.6832C16.1713 20.6376 16.1601 20.5928 16.1407 20.5515C16.1212 20.5102 16.0938 20.4731 16.06 20.4424C16.0262 20.4117 15.9866 20.388 15.9436 20.3725C15.8568 20.3413 15.7612 20.3459 15.6777 20.3852C15.6155 20.4152 15.5473 20.4309 15.4782 20.4312C15.1011 20.4312 14.7826 19.9534 14.7826 19.3879C14.7826 18.8224 15.1011 18.3446 15.4782 18.3446Z" fill="white"/>
</svg>
