<svg width="24" height="24" viewBox="0 0 24 24" fill="none" xmlns="http://www.w3.org/2000/svg">
<path d="M16.3709 20.8455L20.8455 16.3709C21.0515 16.1649 21.0515 15.831 20.8455 15.6251L18.5379 13.3174C18.3319 13.1115 17.998 13.1115 17.7921 13.3174L17.5637 13.5459L14.5458 7.51022C14.4881 7.3947 14.3899 7.30438 14.27 7.25643L3.72774 3.03949C3.7262 3.03885 3.72468 3.03826 3.72314 3.03766C3.70964 3.03224 3.69596 3.02757 3.68221 3.02335C3.6524 3.01421 3.61784 3.007 3.58487 3.00338C3.44308 2.98788 3.30773 3.02943 3.20177 3.11282C3.19783 3.11592 3.19386 3.11898 3.18999 3.12221C3.03762 3.24916 2.9743 3.44403 3.00943 3.62674C3.01199 3.64024 3.01544 3.65356 3.01909 3.66689C3.01987 3.66966 3.02032 3.67251 3.02117 3.67529C3.02634 3.69308 3.03249 3.71062 3.03955 3.72788L7.25643 14.2701C7.30438 14.39 7.3947 14.4881 7.51022 14.5459L13.5459 17.5637L13.3174 17.7922C13.2145 17.8951 13.1629 18.0301 13.1629 18.165C13.1629 18.3 13.2144 18.435 13.3174 18.5379L15.6251 20.8456C15.831 21.0515 16.1649 21.0515 16.3709 20.8455ZM8.16121 13.6922L4.97105 5.71682L9.48267 10.2284C9.38364 10.435 9.32805 10.6662 9.32805 10.9101C9.32805 11.7824 10.0378 12.4921 10.9101 12.4921C11.7824 12.4921 12.4921 11.7824 12.4921 10.9101C12.4921 10.0378 11.7824 9.32805 10.9101 9.32805C10.6662 9.32805 10.435 9.38363 10.2284 9.48267L5.71682 4.97105L13.6922 8.16118L16.7776 14.332L14.332 16.7775L8.16121 13.6922ZM10.9101 10.3827C11.2009 10.3827 11.4374 10.6193 11.4374 10.9101C11.4374 11.2009 11.2009 11.4374 10.9101 11.4374C10.6193 11.4374 10.3827 11.2009 10.3827 10.9101C10.3827 10.6193 10.6193 10.3827 10.9101 10.3827ZM14.4361 18.165L14.8158 17.7853C14.8161 17.785 14.8164 17.7847 14.8167 17.7844L17.7844 14.8167C17.7848 14.8163 17.7851 14.816 17.7855 14.8156L18.165 14.4361L19.7268 15.998L15.9979 19.7269L14.4361 18.165Z" fill="#737373"/>
</svg>
