<svg width="24" height="24" viewBox="0 0 24 24" fill="none" xmlns="http://www.w3.org/2000/svg">
<path d="M4.69914 3.00001C4.43618 2.99906 4.17563 3.05015 3.9325 3.15035C3.68937 3.25054 3.46847 3.39785 3.28253 3.58379C3.09658 3.76974 2.94927 3.99064 2.84908 4.23377C2.74888 4.4769 2.69779 4.73745 2.69874 5.00041V18.9996C2.69779 19.2626 2.74888 19.5231 2.84908 19.7663C2.94927 20.0094 3.09658 20.2303 3.28253 20.4162C3.46847 20.6022 3.68937 20.7495 3.9325 20.8497C4.17563 20.9499 4.43618 21.001 4.69914 21H18.6983C18.9613 21.001 19.2219 20.9499 19.465 20.8497C19.7081 20.7495 19.929 20.6022 20.115 20.4162C20.3009 20.2303 20.4482 20.0094 20.5484 19.7663C20.6486 19.5231 20.6997 19.2626 20.6987 18.9996V5.00041C20.6997 4.73745 20.6486 4.4769 20.5484 4.23377C20.4482 3.99064 20.3009 3.76974 20.115 3.58379C19.929 3.39785 19.7081 3.25054 19.465 3.15035C19.2219 3.05015 18.9613 2.99906 18.6983 3.00001H4.69914ZM4.69914 5.00041H18.6983V18.9996H4.69914V5.00041ZM6.69834 6.99961V9.00001H16.6979V6.99961H6.69834ZM6.69834 10.9992V12.9996H16.6979V11.0004L6.69834 10.9992ZM6.69834 14.9988V16.9992H13.6979V15L6.69834 14.9988Z" fill="#737373"/>
</svg>
