<svg width="24" height="24" viewBox="0 0 24 24" fill="none" xmlns="http://www.w3.org/2000/svg">
<path d="M3 17.2501V21.0001H6.75L17.8095 9.94061L14.0595 6.19061L3 17.2501ZM5.9205 19.0006H4.9995V18.0811L14.0595 9.02111L14.979 9.94061L5.9205 19.0006Z" fill="#737373"/>
<path d="M20.7104 5.62961L18.3704 3.28961C18.1828 3.10384 17.9294 2.99963 17.6654 2.99963C17.4013 2.99963 17.148 3.10384 16.9604 3.28961L15.1304 5.11961L18.8804 8.86961L20.7104 7.03961C20.8031 6.94709 20.8766 6.83721 20.9268 6.71623C20.977 6.59526 21.0028 6.46558 21.0028 6.33461C21.0028 6.20364 20.977 6.07396 20.9268 5.95298C20.8766 5.83201 20.8031 5.72212 20.7104 5.62961Z" fill="#737373"/>
</svg>
