<svg width="24" height="24" viewBox="0 0 24 24" fill="none" xmlns="http://www.w3.org/2000/svg">
<path d="M21.999 5.99999C21.9974 5.47018 21.7863 4.96251 21.4116 4.58788C21.037 4.21324 20.5293 4.00207 19.9995 4.00049H3.99901C3.4692 4.00207 2.96154 4.21324 2.5869 4.58788C2.21226 4.96251 2.00109 5.47018 1.99951 5.99999V18C2.00109 18.5298 2.21226 19.0375 2.5869 19.4121C2.96154 19.7867 3.4692 19.9979 3.99901 19.9995H19.9995C20.5293 19.9979 21.037 19.7867 21.4116 19.4121C21.7863 19.0375 21.9974 18.5298 21.999 18V5.99999ZM19.9995 5.99999L12 11.001L3.99901 5.99999H19.9995ZM19.9995 18H3.99901V8.00099L12 13.0005L19.9995 8.00099V18Z" fill="#737373"/>
</svg>
