<svg width="24" height="24" viewBox="0 0 24 24" fill="none" xmlns="http://www.w3.org/2000/svg">
<g clip-path="url(#clip0_1420_7070)">
<path d="M23.2991 16.5688H19.4834V10.4938C19.4834 8.02969 17.4787 6.02503 15.0147 6.02503H8.93971V0.703125C8.93971 0.314812 8.6249 0 8.23659 0H5.22407C4.83576 0 4.52095 0.314812 4.52095 0.703125V3.71564C4.52095 4.10395 4.83576 4.41877 5.22407 4.41877H7.53346V6.02503H4.47093C2.00685 6.02503 0.00219727 8.02973 0.00219727 10.4938V17.2719C0.00219727 17.6602 0.31701 17.975 0.705322 17.975H7.53346V23.2969C7.53346 23.6852 7.84828 24 8.23659 24H11.2491C11.6374 24 11.9522 23.6852 11.9522 23.2969V17.975H23.2991C24.2298 17.941 24.2313 16.6034 23.2991 16.5688ZM5.9272 3.01252V1.40625H7.53346V3.01252H5.9272ZM10.5459 22.5938H8.93967V17.975H10.5459V22.5938ZM10.5459 10.493V16.5688H1.40845V10.4938C1.40845 8.80509 2.78231 7.43128 4.47093 7.43128H7.53342V10.4938C7.53342 10.8821 7.84823 11.1969 8.23654 11.1969C8.62485 11.1969 8.93967 10.8821 8.93967 10.4938V7.43128H11.7596C10.9759 8.26298 10.5459 9.34491 10.5459 10.493ZM18.0772 16.5688H11.9522V10.4938C11.9522 8.80509 13.326 7.43128 15.0147 7.43128C16.7033 7.43128 18.0772 8.80514 18.0772 10.4938V16.5688H18.0772Z" fill="#737373"/>
</g>
<defs>
<clipPath id="clip0_1420_7070">
<rect width="24" height="24" fill="white"/>
</clipPath>
</defs>
</svg>
