<svg width="24" height="24" viewBox="0 0 24 24" fill="none" xmlns="http://www.w3.org/2000/svg">
<path d="M0.584088 11.2365C0.451311 11.1637 0.334598 11.0649 0.240945 10.9459C0.147292 10.8269 0.0786277 10.6902 0.039067 10.5441C-0.000493634 10.3979 -0.0101356 10.2453 0.0107191 10.0953C0.0315738 9.94533 0.0824958 9.80111 0.160433 9.67129L1.87403 6.71224C1.99336 6.49598 2.18268 6.32673 2.41091 6.23228L11.3584 1.20566C11.5491 1.07181 11.7765 1 12.0096 1C12.2426 1 12.47 1.07181 12.6607 1.20566L21.6853 6.27832C21.9066 6.39285 22.0835 6.5778 22.188 6.804L23.8447 9.68311C23.9202 9.81214 23.9694 9.95481 23.9896 10.1029C24.0098 10.251 24.0005 10.4017 23.9623 10.5462C23.9241 10.6907 23.8577 10.8263 23.7669 10.9451C23.6762 11.0638 23.5629 11.1635 23.4335 11.2384L22.291 11.9009V17.5655C22.2915 17.7724 22.2353 17.9755 22.1285 18.1528C22.0218 18.33 21.8685 18.4746 21.6853 18.5708L12.6598 23.6448C12.4691 23.7784 12.2419 23.8501 12.0091 23.8501C11.7762 23.8501 11.549 23.7784 11.3584 23.6448L2.33221 18.5708C2.14906 18.4746 1.99578 18.33 1.88901 18.1528C1.78225 17.9755 1.72607 17.7724 1.72659 17.5655V11.2365C1.55226 11.3349 1.35549 11.3865 1.15534 11.3865C0.955184 11.3865 0.758419 11.3349 0.584088 11.2365ZM12.0088 3.45737V11.1093L18.8177 7.28333L12.0088 3.45737ZM4.01159 16.8915L10.8663 20.752V13.0873L4.01159 9.23706V16.8915ZM20.006 16.8915V13.2129L14.2935 16.526C14.1192 16.6233 13.9233 16.6753 13.7237 16.6773C13.5241 16.6793 13.3272 16.6313 13.151 16.5375V20.752L20.006 16.8915ZM14.1221 13.9784L21.2968 9.83117L20.6343 8.67716L13.4595 12.8244L14.1221 13.9784Z" fill="#737373"/>
</svg>
