<svg width="24" height="24" viewBox="0 0 24 24" fill="none" xmlns="http://www.w3.org/2000/svg">
<path fill-rule="evenodd" clip-rule="evenodd" d="M12.0038 14.1C13.1636 14.1 14.1038 13.1598 14.1038 12C14.1038 10.8402 13.1636 9.89999 12.0038 9.89999C10.844 9.89999 9.90381 10.8402 9.90381 12C9.90381 13.1598 10.844 14.1 12.0038 14.1ZM12.0038 15.6C13.992 15.6 15.6038 13.9882 15.6038 12C15.6038 10.0118 13.992 8.39999 12.0038 8.39999C10.0156 8.39999 8.40381 10.0118 8.40381 12C8.40381 13.9882 10.0156 15.6 12.0038 15.6Z" fill="#737373"/>
<path fill-rule="evenodd" clip-rule="evenodd" d="M4.87393 12C5.39316 13.7075 7.39254 16.8 12.0004 16.8C16.6082 16.8 18.6076 13.7075 19.1268 12C18.6076 10.2925 16.6082 7.19999 12.0004 7.19999C7.39254 7.19999 5.39316 10.2925 4.87393 12ZM2.46306 11.7283C3.01514 9.35334 5.70695 4.79999 12.0004 4.79999C18.2938 4.79999 20.9856 9.35334 21.5377 11.7283L21.6009 12L21.5377 12.2717C20.9856 14.6466 18.2938 19.2 12.0004 19.2C5.70695 19.2 3.01514 14.6466 2.46306 12.2717L2.3999 12L2.46306 11.7283Z" fill="#737373"/>
</svg>
