<svg width="24" height="24" viewBox="0 0 24 24" fill="none" xmlns="http://www.w3.org/2000/svg">
<path fill-rule="evenodd" clip-rule="evenodd" d="M17.6989 6.41145C16.2665 5.46136 14.3922 4.79999 11.995 4.79999C5.70509 4.79999 3.01479 9.35334 2.46303 11.7283L2.3999 12L2.46303 12.2717C2.6899 13.2482 3.27832 14.593 4.32987 15.8382L6.29824 14.4502C5.53252 13.6041 5.08201 12.6892 4.87254 12C5.39148 10.2925 7.38973 7.19999 11.995 7.19999C13.4065 7.19999 14.5732 7.49052 15.5273 7.94264L17.6989 6.41145ZM14.0084 9.01368C13.4345 8.6262 12.7428 8.39999 11.9984 8.39999C10.0113 8.39999 8.40042 10.0118 8.40042 12C8.40042 12.3071 8.43886 12.6052 8.51118 12.8898L9.90236 11.9089C9.95001 10.7906 10.871 9.89999 11.9984 9.89999C12.2144 9.89999 12.4228 9.93268 12.619 9.99339L14.0084 9.01368ZM5.17087 16.7132L3.2126 18.094C2.94183 18.285 2.87699 18.6593 3.06777 18.9302C3.25854 19.2011 3.6327 19.2659 3.90347 19.0749L6.14845 17.492C7.59833 18.4935 9.51741 19.2 11.995 19.2C18.2849 19.2 20.9752 14.6466 21.5269 12.2717L21.5901 12L21.5269 11.7283C21.2926 10.7196 20.6725 9.31791 19.5546 8.03904L21.3455 6.77624C21.6163 6.58532 21.6811 6.21096 21.4904 5.94009C21.2996 5.66923 20.9254 5.60442 20.6547 5.79534L18.6961 7.17635L16.656 8.61484L14.8913 9.85916L13.6648 10.724L10.2369 13.1411L9.01032 14.006L7.1987 15.2834L5.17087 16.7132ZM11.995 16.8C10.501 16.8 9.28143 16.4745 8.29768 15.9765L9.84581 14.8849C10.4461 15.334 11.1912 15.6 11.9984 15.6C13.9855 15.6 15.5964 13.9882 15.5964 12C15.5964 11.6316 15.5411 11.2762 15.4383 10.9415L17.5813 9.43049C18.4144 10.309 18.8981 11.2782 19.1174 12C18.5985 13.7075 16.6002 16.8 11.995 16.8ZM11.1888 13.9379L14.0935 11.8897C14.0954 11.9263 14.0964 11.963 14.0964 12C14.0964 13.1606 13.1563 14.1 11.9984 14.1C11.7115 14.1 11.438 14.0423 11.1888 13.9379Z" fill="#737373"/>
</svg>
