<svg width="24" height="24" viewBox="0 0 24 24" fill="none" xmlns="http://www.w3.org/2000/svg">
<path d="M18.75 4H5.24998C4.00735 4 3 5.11928 3 6.49999V7.49998C3 7.77612 3.20149 7.99999 3.45001 7.99999H7.30202C7.49394 8.00098 7.66479 8.13523 7.72951 8.33599L8.22002 9.98501C8.40928 10.5902 8.92143 10.997 9.49801 11H20.55C20.7985 11 21 10.7761 21 10.5V6.49999C21 5.11928 19.9926 4 18.75 4Z" fill="#FFA000"/>
<path d="M21.625 9.78571H9.45166C9.25679 9.78292 9.08371 9.65892 9.01625 9.47371L8.51666 7.94248C8.32364 7.38073 7.80217 7.00313 7.215 7H2.37501C1.61562 7 1.00001 7.62361 1.00001 8.39285C0.998803 9.67071 1.18129 10.942 1.54176 12.1666L3.3751 18.3434C3.66553 19.3277 4.56005 20.0015 5.5742 20H18.5175C19.4762 20.0028 20.3352 19.4008 20.6708 18.491L22.6508 13.1406C22.8815 12.5128 22.9997 11.8484 23 11.1786C23 10.4093 22.3844 9.78571 21.625 9.78571Z" fill="#FFC107"/>
</svg>
