<svg width="24" height="24" viewBox="0 0 24 24" fill="none" xmlns="http://www.w3.org/2000/svg">
<path d="M9.16951 5.99999L11.169 8.00099H19.9995V18.0015H3.99901V6.00149H9.16951V5.99999ZM9.99901 4.00049H3.99901C3.47041 4.00287 2.96429 4.21463 2.5915 4.58939C2.2187 4.96416 2.00961 5.47138 2.01001 5.99999L1.99951 18C2.00109 18.5298 2.21226 19.0375 2.5869 19.4121C2.96154 19.7867 3.4692 19.9979 3.99901 19.9995H19.9995C20.5293 19.9979 21.037 19.7867 21.4116 19.4121C21.7863 19.0375 21.9974 18.5298 21.999 18V8.00099C21.9978 7.47091 21.7868 6.96287 21.4122 6.58791C21.0375 6.21295 20.5296 6.00157 19.9995 5.99999H12L9.99901 4.00049Z" fill="#737373"/>
<path fill-rule="evenodd" clip-rule="evenodd" d="M12.75 10H11.25V12.25H9V13.75H11.25V16H12.75V13.75H15V12.25H12.75V10Z" fill="#737373"/>
</svg>
