<svg width="24" height="24" viewBox="0 0 24 24" fill="none" xmlns="http://www.w3.org/2000/svg">
<path d="M18.9543 4H5.04405C3.91701 3.99821 3.00184 4.88747 3 5.98625C2.99985 6.07565 3.00587 6.16495 3.01807 6.25353C3.04707 6.47198 3.25223 6.62614 3.47634 6.59788C3.53092 6.591 3.58351 6.57346 3.63095 6.54627C3.81145 6.44389 4.017 6.39098 4.22581 6.39312H7.13881C7.66451 6.39454 8.13157 6.72049 8.30236 7.20517L8.3719 7.42372C8.65343 8.23615 9.43401 8.78387 10.3136 8.78619H19.7726C19.9872 8.78638 20.1979 8.84138 20.3839 8.94574C20.4467 8.98145 20.5181 9.00015 20.5909 9C20.8168 9 21 8.82141 21 8.60114V5.99425C21 4.89286 20.0841 4 18.9543 4Z" fill="#FFA000"/>
<path d="M20.9608 8.749C20.6439 8.56644 20.2835 8.4704 19.9167 8.47063H10.2833C9.74794 8.46916 9.27227 8.13266 9.09833 7.63229L9.02751 7.40666C8.74079 6.56794 7.94583 6.00249 7.05001 6.00009H4.08332C3.72531 5.99666 3.37301 6.08853 3.06332 6.2661C2.40656 6.62932 1.9998 7.3151 2 8.05889V17.9412C2 19.0782 2.93274 20 4.08332 20H19.9167C21.0673 20 22 19.0782 22 17.9412V10.5295C22.0026 9.79455 21.6058 9.11483 20.9608 8.749Z" fill="#FFC107"/>
</svg>
