<svg width="24" height="24" viewBox="0 0 24 24" fill="none" xmlns="http://www.w3.org/2000/svg">
<path fill-rule="evenodd" clip-rule="evenodd" d="M11.169 8.00099L9.16951 5.99999V6.00149H3.99901V18.0015H19.9995V8.00099H11.169ZM3.99901 4.00049H9.99901L12 5.99999H19.9995C20.5296 6.00157 21.0375 6.21295 21.4122 6.58791C21.7868 6.96287 21.9978 7.47091 21.999 8.00099V18C21.9974 18.5298 21.7863 19.0375 21.4116 19.4121C21.037 19.7867 20.5293 19.9979 19.9995 19.9995H3.99901C3.4692 19.9979 2.96154 19.7867 2.5869 19.4121C2.21226 19.0375 2.00109 18.5298 1.99951 18L2.01001 5.99999C2.00961 5.47138 2.2187 4.96416 2.5915 4.58939C2.96429 4.21463 3.47041 4.00287 3.99901 4.00049ZM11.6617 10.2464L13.6615 12.0835H8.5V13.186H13.6604L11.6617 15.0222L12.3383 15.7586L15.3383 13.0025C15.4413 12.9078 15.5 12.7742 15.5 12.6343C15.5 12.4943 15.4413 12.3608 15.3383 12.2661L12.3383 9.51L11.6617 10.2464Z" fill="#737373"/>
</svg>
