<svg width="24" height="24" viewBox="0 0 24 24" fill="none" xmlns="http://www.w3.org/2000/svg">
<path d="M20.5483 9.44583L19.5729 9.28043C19.4861 9.03873 19.388 8.80161 19.2795 8.57104L19.8538 7.76752C20.3536 7.06546 20.2733 6.11728 19.6649 5.51486L18.4929 4.34268C18.1616 4.01141 17.7225 3.82892 17.2565 3.82892C16.8895 3.82892 16.5386 3.94199 16.2441 4.15393L15.4375 4.72842C15.188 4.61047 14.9349 4.50626 14.6801 4.41623L14.5188 3.46057C14.3769 2.61417 13.6508 2 12.7924 2H11.1365C10.2782 2 9.55218 2.61417 9.41058 3.45889L9.24106 4.45193C9.00165 4.53937 8.76559 4.6387 8.53442 4.74963L7.74249 4.17926C7.44556 3.96548 7.09323 3.85257 6.72351 3.85257C6.25293 3.85257 5.81363 4.03537 5.48602 4.3674L4.31125 5.53836C3.70456 6.14505 3.62506 7.09247 4.12234 7.79102L4.70599 8.61102C4.59842 8.8425 4.50168 9.08069 4.41623 9.32376L3.46042 9.48505C2.61417 9.62711 2 10.3531 2 11.2114V12.8673C2 13.7256 2.61417 14.4516 3.45889 14.5934L4.45193 14.7628C4.53937 15.0023 4.63885 15.2385 4.74963 15.4695L4.1814 16.2599C3.68167 16.962 3.76193 17.9103 4.3703 18.5126L5.54233 19.6848C5.8736 20.0161 6.31274 20.1985 6.77875 20.1985C7.14572 20.1985 7.49667 20.0855 7.79102 19.8737L8.61102 19.29C8.82648 19.3901 9.04987 19.4818 9.2792 19.5644L9.44171 20.5396C9.58377 21.3858 10.3098 22 11.1681 22H12.8278C13.6861 22 14.4123 21.3858 14.554 20.5406L14.7194 19.5652C14.9611 19.4783 15.1982 19.3802 15.4288 19.2717L16.2297 19.8442C16.5267 20.058 16.879 20.1711 17.2487 20.1711C17.7146 20.1711 18.1537 19.9886 18.485 19.6573L19.657 18.4851C20.2639 17.8784 20.3432 16.931 19.8459 16.2325L19.271 15.4251C19.3824 15.1892 19.4808 14.9523 19.5655 14.7167L20.5394 14.5543C21.3857 14.4123 21.9998 13.6862 21.9998 12.8279V11.1754C22.0095 10.3162 21.3997 9.58926 20.5483 9.44583ZM20.828 12.8279C20.828 13.1116 20.625 13.3516 20.3461 13.3985L19.0543 13.6138C18.8159 13.6534 18.6237 13.8216 18.5521 14.0528C18.4374 14.4246 18.2798 14.8047 18.084 15.1819C17.9732 15.3946 17.9909 15.6481 18.1301 15.8431L18.8913 16.9121C19.0555 17.1428 19.0291 17.4559 18.8285 17.6566L17.6564 18.8286C17.5449 18.9402 17.4039 18.9992 17.2487 18.9992C17.1263 18.9992 17.0108 18.9626 16.9129 18.8921L15.8484 18.1313C15.6526 17.9908 15.3981 17.9731 15.1844 18.0849C14.8264 18.2723 14.446 18.4299 14.0537 18.553C13.8248 18.6248 13.6577 18.8164 13.6179 19.0523L13.3985 20.3455C13.3516 20.6252 13.1116 20.8281 12.8278 20.8281H11.1681C10.8843 20.8281 10.6444 20.6252 10.5976 20.3463L10.3823 19.0544C10.3429 18.8176 10.1763 18.6257 9.94739 18.5533C9.56073 18.4313 9.19253 18.2799 8.85272 18.1034C8.7601 18.0553 8.65985 18.0316 8.56006 18.0316C8.43097 18.0316 8.30249 18.0713 8.19247 18.1496L7.10895 18.9208C7.01129 18.9911 6.90021 19.0267 6.77875 19.0267C6.62357 19.0267 6.48257 18.9678 6.37103 18.8561L5.19687 17.6821C4.99652 17.4837 4.97104 17.1715 5.13446 16.9419L5.89114 15.8893C6.03351 15.6917 6.0509 15.4354 5.93616 15.2198C5.74374 14.8589 5.58429 14.4805 5.46207 14.0949C5.38974 13.8675 5.19885 13.7014 4.96387 13.6612L3.65436 13.438C3.37482 13.391 3.17187 13.151 3.17187 12.8673V11.2114C3.17187 10.9278 3.37482 10.6877 3.65482 10.6407L4.93076 10.4254C5.16925 10.3853 5.36136 10.2167 5.43231 9.98477C5.5527 9.59079 5.70758 9.20978 5.89267 8.85272C6.00284 8.64047 5.98514 8.38763 5.84644 8.19247L5.07709 7.11154C4.91275 6.88083 4.93915 6.56772 5.13919 6.36768L6.31519 5.19565L6.31946 5.19122C6.4252 5.08365 6.56863 5.02444 6.72351 5.02444C6.84589 5.02444 6.96155 5.06107 7.05768 5.13034L8.11481 5.8913C8.31271 6.03381 8.56937 6.0509 8.78421 5.93616C9.14508 5.74374 9.5235 5.58429 9.90863 5.46222C10.136 5.39005 10.3022 5.19946 10.3426 4.96387L10.566 3.65436C10.6128 3.37482 10.8528 3.17188 11.1367 3.17188H12.7925C13.0762 3.17188 13.3162 3.37482 13.3632 3.65482L13.5785 4.93121C13.6188 5.16986 13.7877 5.36182 14.0198 5.43262C14.4155 5.55286 14.8101 5.71521 15.1929 5.91541C15.4056 6.02649 15.6591 6.00909 15.855 5.86978L16.9265 5.10669C17.024 5.03635 17.135 5.00079 17.2567 5.00079C17.4117 5.00079 17.5527 5.05969 17.6644 5.17139L18.8384 6.3454C19.0387 6.54376 19.0644 6.85596 18.8999 7.08682L18.1383 8.15234C17.9985 8.34827 17.9811 8.60248 18.0927 8.81549C18.2802 9.17346 18.4377 9.55386 18.561 9.94632C18.6328 10.1752 18.8243 10.3421 19.0602 10.382L20.3524 10.6012L20.3534 10.6014C20.6322 10.6482 20.8319 10.8847 20.828 11.1638V12.8279Z" fill="#737373"/>
<path d="M11.9999 8.11145C9.85571 8.11145 8.11133 9.85583 8.11133 12C8.11133 14.1442 9.85571 15.8885 11.9999 15.8885C14.144 15.8885 15.8884 14.1442 15.8884 12C15.8884 9.85583 14.144 8.11145 11.9999 8.11145ZM11.9999 14.7167C10.5019 14.7167 9.2832 13.498 9.2832 12C9.2832 10.502 10.5019 9.28333 11.9999 9.28333C13.4978 9.28333 14.7166 10.502 14.7166 12C14.7166 13.498 13.4978 14.7167 11.9999 14.7167Z" fill="#737373"/>
</svg>
