<svg width="24" height="24" viewBox="0 0 24 24" fill="none" xmlns="http://www.w3.org/2000/svg">
<path fill-rule="evenodd" clip-rule="evenodd" d="M2 7C2 6.17157 2.67157 5.5 3.5 5.5H20.5C21.3284 5.5 22 6.17157 22 7C22 7.82843 21.3284 8.5 20.5 8.5H3.5C2.67157 8.5 2 7.82843 2 7ZM2 12C2 11.1716 2.67157 10.5 3.5 10.5H20.5C21.3284 10.5 22 11.1716 22 12C22 12.8284 21.3284 13.5 20.5 13.5H3.5C2.67157 13.5 2 12.8284 2 12ZM3.5 15.5C2.67157 15.5 2 16.1716 2 17C2 17.8284 2.67157 18.5 3.5 18.5H20.5C21.3284 18.5 22 17.8284 22 17C22 16.1716 21.3284 15.5 20.5 15.5H3.5Z" fill="#737373"/>
</svg>
