<svg width="24" height="24" viewBox="0 0 24 24" fill="none" xmlns="http://www.w3.org/2000/svg">
<g clip-path="url(#clip0_1476_6116)">
<path d="M5.5 5.5L3.5 6.5L4 9L3 9.5L1.5 11.5L4 15L4.5 19.5L8 21.5L14.5 22L17 21L21 17.5L22.5 13.5L21.5 10L13.5 2L11 4H8L7 5.5H5.5Z" fill="white"/>
<path d="M20.8135 8.01124L15.1313 2.32903C14.1203 1.31802 12.4787 1.31802 11.4676 2.32903C11.0964 2.70028 10.8519 3.16525 10.7548 3.66904C9.73806 2.74714 8.16275 2.77686 7.18371 3.75702C6.76105 4.17969 6.51542 4.71207 6.44575 5.26267C5.47929 4.7886 4.27524 4.95192 3.47099 5.75618C2.58223 6.64611 2.47599 8.02608 3.15226 9.03253C2.62678 9.12164 2.14238 9.3707 1.75741 9.75454C0.747529 10.7644 0.747529 12.4083 1.75741 13.4182L3.57953 15.2403V17.2886C3.57953 20.1228 5.886 22.4293 8.72025 22.4293H14.3499C16.0281 22.4293 17.6057 21.7759 18.7938 20.5889L20.8135 18.5692C22.2232 17.1595 23 15.2849 23 13.2903C23 11.2957 22.2232 9.42093 20.8135 8.01124ZM20.007 17.7615L17.9873 19.7812C17.0151 20.7522 15.723 21.2868 14.351 21.2868H8.72025C6.51547 21.2868 4.72189 19.4933 4.72189 17.2885V16.3826L6.03106 17.6929C6.25383 17.9157 6.61598 17.9157 6.83875 17.6929C6.94954 17.5809 7.00555 17.4347 7.00555 17.2885C7.00555 17.1422 6.95072 16.9961 6.83875 16.8841L2.56509 12.6104C2.29205 12.3374 2.14125 11.973 2.14125 11.5868C2.14125 11.2007 2.29205 10.8363 2.56509 10.5632C3.11231 10.016 4.06618 10.016 4.6134 10.5632L6.03112 11.981C6.25388 12.2037 6.61603 12.2037 6.8388 11.981C6.94959 11.869 7.0056 11.7228 7.0056 11.5765C7.0056 11.4303 6.95077 11.2841 6.8388 11.1721L4.27872 8.61206C3.71437 8.04771 3.71437 7.12811 4.27872 6.56375C4.84308 5.9994 5.76268 5.9994 6.32703 6.56375L8.88711 9.12496C9.10987 9.34772 9.47202 9.34772 9.69479 9.12496C9.80676 9.01299 9.8616 8.8668 9.8616 8.72056C9.8616 8.57431 9.80676 8.42812 9.69479 8.31615L7.9915 6.61286C7.71845 6.33981 7.56766 5.97541 7.56766 5.58926C7.56766 5.20312 7.71845 4.83872 7.99262 4.56567C8.55698 4.00132 9.47658 4.00132 10.0409 4.56567L11.7442 6.26896C11.967 6.49173 12.3291 6.49173 12.5519 6.26896C12.6627 6.15699 12.7187 6.0108 12.7187 5.86456C12.7187 5.71832 12.6639 5.57213 12.5519 5.46016L12.2766 5.18486C11.7123 4.62051 11.7123 3.7009 12.2766 3.13655C12.8238 2.58933 13.7777 2.58933 14.3249 3.13655L20.0071 8.81876C21.2009 10.0125 21.8589 11.6016 21.8589 13.2901C21.8589 14.9785 21.2007 16.5677 20.007 17.7615Z" fill="black"/>
</g>
<defs>
<clipPath id="clip0_1476_6116">
<rect width="22" height="22" fill="white" transform="translate(1 1)"/>
</clipPath>
</defs>
</svg>
