<svg width="24" height="24" viewBox="0 0 24 24" fill="none" xmlns="http://www.w3.org/2000/svg">
<path d="M8 1.5L7 3.5V11L4 12V18L7 22H17L20 17.5L20.5 12.5L20 11.5L10.5 7.5L10 2L8 1.5Z" fill="white"/>
<path d="M8.71331 2.375C8.98682 2.375 9.24912 2.48365 9.44252 2.67705C9.63591 2.87044 9.74456 3.13275 9.74456 3.40625V12C9.74456 12.1823 9.81699 12.3572 9.94593 12.4861C10.0749 12.6151 10.2497 12.6875 10.4321 12.6875C10.6144 12.6875 10.7893 12.6151 10.9182 12.4861C11.0471 12.3572 11.1196 12.1823 11.1196 12V8.51713L11.2378 8.51162C11.6737 8.49512 12.1137 8.50063 12.3598 8.54875C12.5441 8.58588 12.7641 8.68075 12.9758 8.799C13.0817 8.85675 13.1821 9.00113 13.1821 9.23075V12C13.1821 12.1823 13.2545 12.3572 13.3834 12.4861C13.5124 12.6151 13.6872 12.6875 13.8696 12.6875C14.0519 12.6875 14.2268 12.6151 14.3557 12.4861C14.4846 12.3572 14.5571 12.1823 14.5571 12V9.84812C14.6056 9.84301 14.6542 9.83843 14.7028 9.83438C15.1373 9.80138 15.5058 9.82063 15.6763 9.88938C15.8386 9.95263 16.0888 10.174 16.3446 10.4806C16.4559 10.6126 16.5508 10.7419 16.6196 10.8368V12.6875C16.6196 12.8698 16.692 13.0447 16.8209 13.1736C16.9499 13.3026 17.1247 13.375 17.3071 13.375C17.4894 13.375 17.6643 13.3026 17.7932 13.1736C17.9221 13.0447 17.9946 12.8698 17.9946 12.6875V11.3125H18.4648C18.657 11.3125 18.847 11.3528 19.0226 11.4307C19.1983 11.5087 19.3556 11.6226 19.4846 11.7651C19.6135 11.9076 19.7111 12.0756 19.7711 12.2581C19.8311 12.4407 19.8522 12.6338 19.8329 12.825L19.4603 16.5581C19.4122 17.0379 19.2637 17.5021 19.0244 17.9207L17.1063 21.2785C17.0462 21.3837 16.9594 21.4712 16.8546 21.532C16.7498 21.5929 16.6307 21.625 16.5096 21.625H7.73019C7.61697 21.6249 7.50551 21.5969 7.40573 21.5434C7.30594 21.4899 7.22091 21.4126 7.15819 21.3184L5.18781 18.3621C5.00486 18.088 4.89029 17.7739 4.85369 17.4464L4.37931 13.177C4.36014 13.0059 4.40587 12.8338 4.50745 12.6948C4.60904 12.5558 4.75909 12.46 4.92794 12.4263L6.30706 12.1512V13.375C6.30706 13.5573 6.37949 13.7322 6.50843 13.8611C6.63736 13.9901 6.81223 14.0625 6.99456 14.0625C7.1769 14.0625 7.35177 13.9901 7.4807 13.8611C7.60963 13.7322 7.68206 13.5573 7.68206 13.375V3.40625C7.68206 3.13275 7.79071 2.87044 7.98411 2.67705C8.1775 2.48365 8.43981 2.375 8.71331 2.375ZM11.1196 7.14075V3.40625C11.1196 2.76807 10.866 2.15603 10.4148 1.70477C9.96353 1.25351 9.35149 1 8.71331 1C8.07513 1 7.4631 1.25351 7.01184 1.70477C6.56058 2.15603 6.30706 2.76807 6.30706 3.40625V10.7488L4.65706 11.0787C4.15131 11.1801 3.7019 11.4674 3.39748 11.8838C3.09307 12.3002 2.95573 12.8156 3.01256 13.3282L3.48694 17.599C3.54794 18.1449 3.7389 18.6683 4.04381 19.1252L6.01419 22.0815C6.20252 22.364 6.45768 22.5957 6.75703 22.7559C7.05638 22.9161 7.39065 23 7.73019 23H16.5096C16.8731 22.9999 17.2302 22.9037 17.5445 22.7211C17.8589 22.5386 18.1195 22.2762 18.2998 21.9605L20.2179 18.6041C20.5533 18.0174 20.7613 17.3667 20.8284 16.6942L21.2011 12.9611C21.2393 12.5788 21.197 12.1928 21.0769 11.8278C20.9568 11.4629 20.7615 11.1271 20.5037 10.8423C20.2459 10.5574 19.9313 10.3297 19.5801 10.1739C19.2289 10.018 18.849 9.93751 18.4648 9.9375H17.6659C17.5801 9.8211 17.4907 9.70738 17.3978 9.5965C17.1352 9.28162 16.6966 8.8155 16.1878 8.612C15.6873 8.41125 15.0246 8.4305 14.5956 8.4635L14.4141 8.48C14.2677 8.10527 13.9954 7.79317 13.6441 7.59725C13.3277 7.41481 12.9856 7.2813 12.6293 7.20125C12.2031 7.116 11.6132 7.1215 11.1856 7.138L11.1196 7.14075Z" fill="black"/>
</svg>
