<svg width="24" height="24" viewBox="0 0 24 24" fill="none" xmlns="http://www.w3.org/2000/svg">
<path d="M13.0671 3.375C10.7662 3.375 8.55964 4.28371 6.9327 5.90121C5.30577 7.51871 4.39177 9.71251 4.39177 12H1.5L5.2499 15.7282L5.31713 15.8626L9.21162 12H6.31985C6.31239 10.4392 6.84996 8.92424 7.84083 7.71361C8.83169 6.50298 10.2144 5.67175 11.7531 5.36177C13.2917 5.0518 14.8908 5.2823 16.2776 6.01393C17.6643 6.74556 18.7527 7.93298 19.3569 9.37353C19.9612 10.8141 20.0439 12.4185 19.5909 13.9129C19.1379 15.4073 18.1773 16.6991 16.8731 17.5678C15.5688 18.4365 14.0018 18.8283 12.4393 18.6763C10.8769 18.5244 9.41592 17.838 8.30577 16.7344L6.93652 18.095C7.94509 19.099 9.18721 19.84 10.5528 20.2525C11.9184 20.665 13.3652 20.7362 14.7651 20.4597C16.1649 20.1832 17.4746 19.5676 18.5779 18.6675C19.6812 17.7674 20.5441 16.6106 21.0901 15.2996C21.6361 13.9886 21.8483 12.5639 21.708 11.1519C21.5676 9.73982 21.079 8.384 20.2855 7.20459C19.492 6.02519 18.4181 5.05863 17.1589 4.39062C15.8998 3.7226 14.4943 3.37376 13.0671 3.375ZM12.1034 8.16691V12.9588L16.2292 15.3932L16.9232 14.2339L13.5493 12.2408V8.16691H12.1034Z" fill="#81BEFF"/>
</svg>
