<svg width="24" height="24" viewBox="0 0 24 24" fill="none" xmlns="http://www.w3.org/2000/svg">
<path d="M12.9999 9H10.9999V7H12.9999V9ZM12.9999 17H10.9999V11H12.9999V17ZM11.9999 2C9.51738 2.00016 7.12372 2.92368 5.28444 4.59092C3.44516 6.25816 2.29177 8.54993 2.0486 11.0205C1.80543 13.491 2.48987 15.9636 3.9688 17.9575C5.44773 19.9513 7.6154 21.3238 10.0502 21.808C12.485 22.2921 15.0128 21.8534 17.142 20.577C19.2712 19.3006 20.8496 17.2779 21.5701 14.9023C22.2906 12.5267 22.1017 9.96802 21.0402 7.72395C19.9787 5.47989 18.1204 3.71088 15.8268 2.761C14.6135 2.2585 13.3131 1.99991 11.9999 2Z" fill="#737373"/>
</svg>
