<svg width="24" height="24" viewBox="0 0 24 24" fill="none" xmlns="http://www.w3.org/2000/svg">
<path d="M15.1031 8.5288C14.9881 8.5288 14.873 8.48485 14.7853 8.39694C12.7777 6.38521 9.51047 6.38521 7.50285 8.39694C7.32737 8.57276 7.04292 8.57276 6.86745 8.39694C6.69197 8.22129 6.69197 7.93629 6.86745 7.76047C9.22549 5.39763 13.0625 5.39763 15.4207 7.76047C15.5962 7.93611 15.5962 8.22112 15.4207 8.39694C15.3329 8.48485 15.218 8.5288 15.1031 8.5288Z" fill="#737373"/>
<path d="M16.64 6.98879C16.5244 6.98879 16.4089 6.94449 16.321 6.8557L16.3155 6.85025C16.1394 6.67513 16.1381 6.39012 16.3129 6.2136C16.4877 6.03725 16.7721 6.03602 16.9481 6.21114L16.9588 6.22169C17.1336 6.39821 17.1324 6.68322 16.9562 6.85833C16.8686 6.94536 16.7542 6.98879 16.64 6.98879Z" fill="#737373"/>
<path d="M5.64795 6.98879C5.53301 6.98879 5.41808 6.94483 5.33034 6.85692C5.15486 6.68128 5.15486 6.39628 5.33034 6.22046C6.6622 4.88599 8.35343 4.06966 10.2212 3.85938C12.0339 3.65543 13.8841 4.06561 15.4312 5.01416C15.6427 5.14391 15.7094 5.42101 15.5799 5.63304C15.4504 5.84508 15.1738 5.91172 14.9622 5.78196C12.0681 4.00742 8.36853 4.44925 5.96556 6.85692C5.878 6.94483 5.76289 6.98879 5.64795 6.98879Z" fill="#737373"/>
<path d="M11.144 18.0798C9.59522 18.0798 8.04647 17.4893 6.86745 16.3078C6.69197 16.1321 6.69197 15.8471 6.86745 15.6713C7.04292 15.4955 7.32737 15.4955 7.50285 15.6713C9.51047 17.683 12.7777 17.683 14.7853 15.6713C14.9608 15.4955 15.2452 15.4955 15.4207 15.6713C15.5962 15.8471 15.5962 16.1321 15.4207 16.3078C14.2417 17.4893 12.6927 18.0798 11.144 18.0798Z" fill="#737373"/>
<path d="M11.1494 20.2604C9.54329 20.2604 7.95962 19.7895 6.61934 18.9029C6.41245 18.7659 6.35542 18.4865 6.49212 18.2792C6.62881 18.0718 6.90747 18.0148 7.11453 18.1516C10.0004 20.0612 13.8728 19.6656 16.3225 17.2113C16.4978 17.0355 16.7822 17.0355 16.9577 17.2113C17.1332 17.3871 17.1332 17.6721 16.9577 17.8478C15.6102 19.1979 13.8254 20.0415 11.9317 20.2231C11.6711 20.2479 11.4098 20.2604 11.1494 20.2604Z" fill="#737373"/>
<path d="M5.66375 17.9953C5.54969 17.9953 5.43563 17.952 5.34807 17.8653L5.32912 17.8465C5.15452 17.67 5.15575 17.385 5.33192 17.2099C5.5081 17.035 5.79237 17.0362 5.96714 17.2127L5.97925 17.2248C6.15578 17.3994 6.15771 17.6844 5.98329 17.8615C5.89555 17.9504 5.77956 17.9953 5.66375 17.9953Z" fill="#737373"/>
<path d="M11.1376 13.6977C10.2222 13.6977 9.47729 12.9513 9.47729 12.0341C9.47729 11.1168 10.2222 10.3707 11.1376 10.3707C12.0531 10.3707 12.7978 11.1168 12.7978 12.0341C12.7978 12.9513 12.0531 13.6977 11.1376 13.6977ZM11.1376 11.2709C10.7176 11.2709 10.3757 11.6132 10.3757 12.0341C10.3757 12.455 10.7176 12.7975 11.1376 12.7975C11.5577 12.7975 11.8994 12.455 11.8994 12.0341C11.8994 11.6132 11.5577 11.2709 11.1376 11.2709Z" fill="#737373"/>
<path d="M2.66035 16.4396C1.74472 16.4396 1 15.6934 1 14.7762V9.2922C1 8.37495 1.74472 7.6286 2.66035 7.6286C3.57581 7.6286 4.32053 8.37495 4.32053 9.2922V14.7762C4.32053 15.6934 3.57581 16.4396 2.66035 16.4396ZM2.66035 8.5288C2.24026 8.5288 1.89844 8.87129 1.89844 9.2922V14.7762C1.89844 15.1971 2.24026 15.5394 2.66035 15.5394C3.08027 15.5394 3.4221 15.1971 3.4221 14.7762V9.2922C3.4221 8.87129 3.08027 8.5288 2.66035 8.5288Z" fill="#737373"/>
<path d="M20.599 16.4396C19.7948 16.4396 19.1404 15.7842 19.1404 14.9784V10.5834H18.6561C17.8521 10.5834 17.1978 9.92779 17.1978 9.12219C17.1978 8.3164 17.8521 7.66095 18.6561 7.66095H22.5417C23.3459 7.66095 24.0001 8.3164 24.0001 9.12219C24.0001 9.92779 23.3459 10.5834 22.5417 10.5834H22.0574V14.9784C22.0574 15.7842 21.403 16.4396 20.599 16.4396ZM18.6561 8.56115C18.3475 8.56115 18.0962 8.81274 18.0962 9.12219C18.0962 9.43163 18.3475 9.68323 18.6561 9.68323H19.5897C19.8378 9.68323 20.0389 9.88471 20.0389 10.1333V14.9784C20.0389 15.2878 20.2902 15.5394 20.599 15.5394C20.9077 15.5394 21.159 15.2878 21.159 14.9784V10.1333C21.159 9.88471 21.36 9.68323 21.6082 9.68323H22.5417C22.8505 9.68323 23.1016 9.43145 23.1016 9.12219C23.1016 8.81274 22.8505 8.56115 22.5417 8.56115H18.6561Z" fill="#737373"/>
<path d="M11.1375 15.8817C9.02001 15.8817 7.29736 14.1557 7.29736 12.0341C7.29736 9.91266 9.02001 8.18646 11.1375 8.18646C13.255 8.18646 14.9776 9.91266 14.9776 12.0341C14.9776 14.1557 13.255 15.8817 11.1375 15.8817ZM11.1375 9.08666C9.51538 9.08666 8.1958 10.4088 8.1958 12.0341C8.1958 13.6594 9.51538 14.9815 11.1375 14.9815C12.7594 14.9815 14.0792 13.6594 14.0792 12.0341C14.0792 10.4088 12.7594 9.08666 11.1375 9.08666Z" fill="#737373"/>
</svg>
