<svg width="24" height="24" viewBox="0 0 24 24" fill="none" xmlns="http://www.w3.org/2000/svg">
<path d="M17.913 22.1739H6.08696C5.53346 22.1739 5.00264 21.954 4.61126 21.5627C4.21988 21.1713 4 20.6405 4 20.087V4.08696C4 3.53346 4.21988 3.00264 4.61126 2.61126C5.00264 2.21988 5.53346 2 6.08696 2H15.8261L20 6.17391V20.087C20 20.6405 19.7801 21.1713 19.3887 21.5627C18.9974 21.954 18.4665 22.1739 17.913 22.1739Z" fill="#CFD2FC"/>
<path d="M4 16.6087H20V20.087C20 20.6405 19.7801 21.1713 19.3887 21.5627C18.9974 21.954 18.4665 22.1739 17.913 22.1739H6.08696C5.53346 22.1739 5.00264 21.954 4.61126 21.5627C4.21988 21.1713 4 20.6405 4 20.087V16.6087Z" fill="#5153FF"/>
<path d="M20.0001 6.17391H17.9131C17.3596 6.17391 16.8288 5.95404 16.4374 5.56266C16.046 5.17128 15.8262 4.64045 15.8262 4.08696V2L20.0001 6.17391Z" fill="#8690FA"/>
<path d="M7.47827 6.86957H16.5217V13.8261H7.47827V6.86957Z" fill="white"/>
<path d="M10.2609 10.3478L12 12.4348L14.087 11.7391L16.5217 13.8261H7.47827L10.2609 10.3478Z" fill="#8690FA"/>
<path d="M13.3912 10.3478C13.7754 10.3478 14.0869 10.0364 14.0869 9.6522C14.0869 9.268 13.7754 8.95654 13.3912 8.95654C13.007 8.95654 12.6956 9.268 12.6956 9.6522C12.6956 10.0364 13.007 10.3478 13.3912 10.3478Z" fill="#5153FF"/>
<path d="M11.6521 17.6522H10.9565C10.8642 17.6522 10.7757 17.6888 10.7105 17.754C10.6453 17.8193 10.6086 17.9077 10.6086 18V20.7826C10.6086 20.8748 10.6453 20.9633 10.7105 21.0285C10.7757 21.0938 10.8642 21.1304 10.9565 21.1304C11.0487 21.1304 11.1372 21.0938 11.2024 21.0285C11.2676 20.9633 11.3043 20.8748 11.3043 20.7826V19.7391H11.6521C11.9289 19.7391 12.1943 19.6292 12.39 19.4335C12.5857 19.2378 12.6956 18.9724 12.6956 18.6956C12.6956 18.4189 12.5857 18.1535 12.39 17.9578C12.1943 17.7621 11.9289 17.6522 11.6521 17.6522ZM11.6521 19.0435H11.3043V18.3478H11.6521C11.7444 18.3478 11.8328 18.3845 11.8981 18.4497C11.9633 18.5149 11.9999 18.6034 11.9999 18.6956C11.9999 18.7879 11.9633 18.8764 11.8981 18.9416C11.8328 19.0068 11.7444 19.0435 11.6521 19.0435Z" fill="white"/>
<path d="M9.5653 17.6522C9.47305 17.6522 9.38458 17.6888 9.31935 17.754C9.25412 17.8193 9.21748 17.9077 9.21748 18V20.0869C9.21748 20.1792 9.18083 20.2677 9.1156 20.3329C9.05037 20.3981 8.9619 20.4348 8.86965 20.4348C8.7774 20.4348 8.68893 20.3981 8.6237 20.3329C8.55847 20.2677 8.52182 20.1792 8.52182 20.0869C8.52182 19.9947 8.48518 19.9062 8.41995 19.841C8.35472 19.7758 8.26625 19.7391 8.174 19.7391C8.08175 19.7391 7.99328 19.7758 7.92805 19.841C7.86282 19.9062 7.82617 19.9947 7.82617 20.0869C7.82617 20.3637 7.93611 20.6291 8.1318 20.8248C8.32749 21.0205 8.5929 21.1304 8.86965 21.1304C9.1464 21.1304 9.41181 21.0205 9.6075 20.8248C9.80319 20.6291 9.91313 20.3637 9.91313 20.0869V18C9.91313 17.9077 9.87648 17.8193 9.81125 17.754C9.74602 17.6888 9.65755 17.6522 9.5653 17.6522Z" fill="white"/>
<path d="M15.8261 19.0435H15.1305C15.0382 19.0435 14.9498 19.0801 14.8845 19.1453C14.8193 19.2106 14.7827 19.299 14.7827 19.3913C14.7827 19.4835 14.8193 19.572 14.8845 19.6372C14.9498 19.7025 15.0382 19.7391 15.1305 19.7391H15.437C15.3391 20.1399 15.0789 20.4348 14.7827 20.4348C14.4056 20.4348 14.087 19.9569 14.087 19.3913C14.087 18.8257 14.4056 18.3478 14.7827 18.3478C14.8518 18.3481 14.9199 18.3638 14.9822 18.3938C15.0656 18.4331 15.1613 18.4377 15.2481 18.4065C15.2911 18.391 15.3306 18.3673 15.3644 18.3366C15.3982 18.3058 15.4256 18.2688 15.4451 18.2274C15.4646 18.1861 15.4757 18.1414 15.4779 18.0958C15.4801 18.0501 15.4733 18.0045 15.4578 17.9615C15.4424 17.9185 15.4186 17.879 15.3879 17.8452C15.3572 17.8114 15.3201 17.784 15.2788 17.7645C15.1238 17.6907 14.9543 17.6523 14.7827 17.6522C14.0155 17.6522 13.3914 18.4323 13.3914 19.3913C13.3914 20.3502 14.0155 21.1304 14.7827 21.1304C15.5498 21.1304 16.174 20.3502 16.174 19.3913C16.174 19.299 16.1373 19.2106 16.0721 19.1453C16.0069 19.0801 15.9184 19.0435 15.8261 19.0435Z" fill="white"/>
</svg>
