<svg width="24" height="24" viewBox="0 0 24 24" fill="none" xmlns="http://www.w3.org/2000/svg">
<path d="M19.2236 7.66884L12 3L4.77636 7.66884C4.5396 7.81481 4.34358 8.02179 4.20749 8.26953C4.0714 8.51727 3.9999 8.79727 4 9.08213V17.3474C4.00127 17.7853 4.17019 18.2049 4.46989 18.5145C4.76958 18.8242 5.17569 18.9987 5.59952 19H18.3993C18.8233 18.999 19.2297 18.8246 19.5297 18.515C19.8296 18.2053 19.9987 17.7855 20 17.3474V9.08213C20.0001 8.79727 19.9286 8.51727 19.7925 8.26953C19.6564 8.02179 19.4604 7.81481 19.2236 7.66884ZM18.3993 17.3474H5.60072V10.7359L12 14.868L18.3993 10.7359V17.3474ZM12 13.2154L5.60072 9.08213L12 4.9501L18.3993 9.08213L12 13.2154Z" fill="#737373"/>
</svg>
