<svg width="24" height="24" viewBox="0 0 24 24" fill="none" xmlns="http://www.w3.org/2000/svg">
<path d="M12 13.2005L4.00001 8.20815V7.59971C3.99937 7.38936 4.04035 7.18095 4.12059 6.9865C4.20082 6.79205 4.31872 6.6154 4.46751 6.46671C4.61629 6.31802 4.79301 6.20024 4.9875 6.12014C5.18199 6.04005 5.3904 5.99922 5.60073 6.00001H18.3993C18.6094 5.99985 18.8176 6.04111 19.0118 6.12144C19.206 6.20176 19.3824 6.31957 19.5311 6.46813C19.6797 6.61669 19.7977 6.79309 19.8781 6.98725C19.9586 7.18142 20 7.38953 20 7.59971V8.19975L12 13.2005ZM20 17.2003C20 17.6246 19.8315 18.0315 19.5315 18.3315C19.2315 18.6315 18.8247 18.8 18.4005 18.8H5.60073C5.39057 18.8002 5.18245 18.7589 4.98825 18.6786C4.79405 18.5983 4.61758 18.4804 4.46892 18.3319C4.32026 18.1833 4.20234 18.0069 4.12188 17.8128C4.04142 17.6186 4.00001 17.4105 4.00001 17.2003V10.0875L5.59953 11.0871V17.2003H18.3993V11.0883L19.9988 10.0887L20 17.2003Z" fill="#737373"/>
</svg>
