<svg width="24" height="24" viewBox="0 0 24 24" fill="none" xmlns="http://www.w3.org/2000/svg">
<g clip-path="url(#clip0_1072_8449)">
<path d="M12.5455 0C11.943 0 11.4546 0.488438 11.4546 1.09092V5.45456C11.4546 6.05705 11.943 6.54548 12.5455 6.54548C13.148 6.54548 13.6364 6.05705 13.6364 5.45456V1.09092C13.6364 0.488438 13.148 0 12.5455 0Z" fill="#2D50A7"/>
<path d="M12.5455 17.4546C11.943 17.4546 11.4546 17.943 11.4546 18.5455V22.9092C11.4546 23.5116 11.943 24.0001 12.5455 24.0001C13.148 24.0001 13.6364 23.5116 13.6364 22.9092V18.5455C13.6364 17.943 13.148 17.4546 12.5455 17.4546Z" fill="#73A1FB"/>
<path d="M8.68836 6.60035L5.60276 3.51466C5.17686 3.08862 4.48611 3.08862 4.06001 3.51466C3.63397 3.94071 3.63397 4.63141 4.06001 5.05741L7.14561 8.1431C7.35861 8.3561 7.63784 8.46265 7.91694 8.46265C8.19608 8.46265 8.47536 8.3561 8.68826 8.1431C9.1144 7.71706 9.1144 7.0264 8.68836 6.60035Z" fill="#355EC9"/>
<path d="M22.3635 10.9091H20.1817C19.5793 10.9091 19.0908 11.3975 19.0908 12C19.0908 12.6025 19.5793 13.0909 20.1817 13.0909H22.3635C22.966 13.0909 23.4545 12.6025 23.4545 12C23.4545 11.3975 22.966 10.9091 22.3635 10.9091Z" fill="#C4D9FD"/>
<path d="M17.945 15.857C17.5191 15.4309 16.8283 15.431 16.4023 15.857C15.9762 16.283 15.9763 16.9737 16.4023 17.3997L19.488 20.4853C19.701 20.6983 19.9802 20.8048 20.2594 20.8048C20.5386 20.8048 20.8178 20.6982 21.0307 20.4853C21.4567 20.0592 21.4567 19.3685 21.0307 18.9425L17.945 15.857Z" fill="#C4D9FD"/>
<path d="M7.09089 12C7.09089 11.3975 6.60246 10.9091 5.99997 10.9091H1.63633C1.03385 10.9091 0.54541 11.3975 0.54541 12C0.54541 12.6025 1.03385 13.0909 1.63633 13.0909H5.99997C6.60246 13.0909 7.09089 12.6025 7.09089 12Z" fill="#3D6DEB"/>
<path d="M8.68856 15.857C8.2626 15.431 7.5718 15.431 7.1458 15.857L4.06026 18.9426C3.63421 19.3685 3.63421 20.0593 4.06026 20.4853C4.27326 20.6983 4.55249 20.8048 4.83168 20.8048C5.11087 20.8048 5.3901 20.6984 5.60301 20.4853L8.68856 17.3998C9.1146 16.9738 9.1146 16.2831 8.68856 15.857Z" fill="#5286FA"/>
</g>
<defs>
<clipPath id="clip0_1072_8449">
<path d="M0 2C0 0.89543 0.895431 0 2 0H22C23.1046 0 24 0.895431 24 2V22C24 23.1046 23.1046 24 22 24H2C0.89543 24 0 23.1046 0 22V2Z" fill="white"/>
</clipPath>
</defs>
</svg>
