<svg width="24" height="24" viewBox="0 0 24 24" fill="none" xmlns="http://www.w3.org/2000/svg">
<path d="M12 2C6.48598 2 2 6.48598 2 12C2 17.514 6.48598 22 12 22C17.514 22 22 17.514 22 12C22 6.48598 17.514 2 12 2ZM12 20.75C7.17523 20.75 3.25 16.8248 3.25 12C3.25 7.17523 7.17523 3.25 12 3.25C16.8248 3.25 20.75 7.17523 20.75 12C20.75 16.8248 16.8248 20.75 12 20.75ZM15.7266 8.83559V15.1644C15.726 15.6351 15.5388 16.0865 15.2059 16.4194C14.873 16.7523 14.4217 16.9395 13.9509 16.94H10.0492C9.57842 16.9395 9.12705 16.7523 8.79414 16.4194C8.46123 16.0865 8.27396 15.6352 8.27344 15.1644V13.9662C8.27344 13.8004 8.33929 13.6414 8.4565 13.5242C8.57371 13.407 8.73268 13.3412 8.89844 13.3412C9.0642 13.3412 9.22317 13.407 9.34038 13.5242C9.45759 13.6414 9.52344 13.8004 9.52344 13.9662V15.1644C9.5236 15.3037 9.57904 15.4373 9.67758 15.5359C9.77613 15.6344 9.90974 15.6899 10.0491 15.69H13.9506C14.09 15.6899 14.2237 15.6345 14.3223 15.536C14.4209 15.4374 14.4764 15.3038 14.4766 15.1644V8.83559C14.4764 8.69622 14.421 8.56261 14.3224 8.46407C14.2239 8.36552 14.0903 8.31009 13.9509 8.30992H10.0492C9.90983 8.31006 9.7762 8.36548 9.67762 8.46403C9.57905 8.56258 9.5236 8.6962 9.52344 8.83559V10.3099C9.52344 10.4757 9.45759 10.6347 9.34038 10.7519C9.22317 10.8691 9.0642 10.9349 8.89844 10.9349C8.73268 10.9349 8.57371 10.8691 8.4565 10.7519C8.33929 10.6347 8.27344 10.4757 8.27344 10.3099V8.83559C8.27396 8.36481 8.46121 7.91347 8.7941 7.58058C9.12699 7.2477 9.57833 7.06045 10.0491 7.05992H13.9506C14.4214 7.06038 14.8729 7.24759 15.2058 7.58049C15.5387 7.91338 15.726 8.36477 15.7266 8.83559ZM8.89844 11.5365H11.5443L11.1885 11.1741C11.131 11.1156 11.0856 11.0463 11.0548 10.9702C11.0241 10.894 11.0087 10.8126 11.0094 10.7306C11.0102 10.6485 11.0271 10.5674 11.0592 10.4918C11.0913 10.4163 11.1379 10.3478 11.1965 10.2903C11.2551 10.2328 11.3244 10.1874 11.4005 10.1567C11.4766 10.1259 11.558 10.1105 11.6401 10.1113C11.7222 10.112 11.8033 10.1289 11.8788 10.161C11.9544 10.1931 12.0228 10.2398 12.0804 10.2983L13.48 11.7236C13.5948 11.8405 13.6591 11.9977 13.6591 12.1615C13.6591 12.3253 13.5948 12.4826 13.48 12.5995L12.0805 14.0247C11.9643 14.143 11.806 14.2103 11.6402 14.2118C11.4744 14.2133 11.3149 14.1489 11.1966 14.0327C11.0783 13.9166 11.011 13.7582 11.0095 13.5925C11.008 13.4267 11.0724 13.2671 11.1886 13.1489L11.5444 12.7865H8.89844C8.73268 12.7865 8.57371 12.7207 8.4565 12.6035C8.33929 12.4863 8.27344 12.3273 8.27344 12.1615C8.27344 11.9958 8.33929 11.8368 8.4565 11.7196C8.57371 11.6024 8.73268 11.5365 8.89844 11.5365Z" fill="#737373"/>
</svg>
