<svg width="24" height="24" viewBox="0 0 24 24" fill="none" xmlns="http://www.w3.org/2000/svg">
<path d="M15.8725 14.327H15.0599L14.7715 14.0494C15.8987 12.7362 16.4733 11.0373 16.3745 9.30952C16.2756 7.58175 15.5112 5.95944 14.2415 4.7832C12.9719 3.60696 11.2958 2.96827 9.56526 3.00121C7.83468 3.03416 6.18417 3.73619 4.96024 4.95991C3.73632 6.18362 3.03417 7.83385 3.00121 9.56414C2.96826 11.2944 3.60706 12.9702 4.7835 14.2396C5.95995 15.509 7.58253 16.2734 9.3106 16.3722C11.0387 16.471 12.7378 15.8965 14.0513 14.7695L14.3289 15.0578V15.8703L19.4687 21L21 19.469L15.8725 14.327ZM9.70417 14.327C8.78918 14.327 7.89473 14.0557 7.13395 13.5474C6.37316 13.0392 5.7802 12.3168 5.43004 11.4716C5.07989 10.6264 4.98828 9.69635 5.16678 8.79909C5.34529 7.90183 5.7859 7.07765 6.4329 6.43077C7.07989 5.78388 7.90422 5.34335 8.80163 5.16487C9.69904 4.98639 10.6292 5.07799 11.4746 5.42809C12.3199 5.77818 13.0424 6.37104 13.5508 7.1317C14.0591 7.89235 14.3304 8.78664 14.3304 9.70148C14.3304 10.9282 13.843 12.1047 12.9754 12.9722C12.1078 13.8396 10.9311 14.327 9.70417 14.327Z" fill="#737373"/>
</svg>
