<svg width="24" height="24" viewBox="0 0 24 24" fill="none" xmlns="http://www.w3.org/2000/svg">
<path d="M8 2L2.36 3.9C2.2575 3.93258 2.16772 3.99634 2.10318 4.08239C2.03865 4.16843 2.00258 4.27247 2 4.38V19.5C2 19.6326 2.05268 19.7598 2.14645 19.8536C2.19288 19.9 2.248 19.9368 2.30866 19.9619C2.36932 19.9871 2.43434 20 2.5 20C2.55502 20.0038 2.6101 19.9935 2.66 19.97L8 17.9L12.16 19.3583C12.0565 18.9129 12.0028 18.4573 12 18C11.9942 17.7659 12.0081 17.5317 12.0417 17.3L8 15.9V4L14 6.1V13.5583C15.0948 12.5622 16.5199 12.0071 18 12C18.6826 12.0016 19.3597 12.1234 20 12.36V2.5C20 2.43434 19.9871 2.36932 19.9619 2.30866C19.9368 2.248 19.9 2.19288 19.8536 2.14645C19.8071 2.10002 19.752 2.06319 19.6913 2.03806C19.6307 2.01293 19.5657 2 19.5 2H19.34L14 4.1L8 2ZM17 14V17H14V19H17V22H19V19H22V17H19V14H17Z" fill="#737373"/>
</svg>
