<svg width="24" height="24" viewBox="0 0 24 24" fill="none" xmlns="http://www.w3.org/2000/svg">
<path d="M17.913 22.1739H6.08696C5.53346 22.1739 5.00264 21.954 4.61126 21.5627C4.21988 21.1713 4 20.6405 4 20.087V4.08696C4 3.53346 4.21988 3.00264 4.61126 2.61126C5.00264 2.21988 5.53346 2 6.08696 2H15.8261L20 6.17391V20.087C20 20.6405 19.7801 21.1713 19.3887 21.5627C18.9974 21.954 18.4665 22.1739 17.913 22.1739Z" fill="#CFD2FC"/>
<path d="M4 16.6087H20V20.087C20 20.6405 19.7801 21.1713 19.3887 21.5627C18.9974 21.954 18.4665 22.1739 17.913 22.1739H6.08696C5.53346 22.1739 5.00264 21.954 4.61126 21.5627C4.21988 21.1713 4 20.6405 4 20.087V16.6087Z" fill="#5153FF"/>
<path d="M20.0001 6.17391H17.9131C17.3596 6.17391 16.8288 5.95404 16.4374 5.56266C16.046 5.17128 15.8262 4.64045 15.8262 4.08696V2L20.0001 6.17391Z" fill="#8690FA"/>
<path opacity="0.5" d="M7.47827 6.86957H16.5217V13.8261H7.47827V6.86957Z" fill="white"/>
</svg>
