<svg width="24" height="24" viewBox="0 0 24 24" fill="none" xmlns="http://www.w3.org/2000/svg">
<path d="M4.93176 2H2.58867C2.2652 2 2.00293 2.26227 2.00293 2.58578V4.96793C2.00293 5.29145 2.26516 5.55371 2.58871 5.55371C2.91223 5.55371 3.17449 5.29145 3.17449 4.96793V3.17156H4.9318C5.25531 3.17156 5.51758 2.9093 5.51758 2.58578C5.51754 2.26227 5.25527 2 4.93176 2Z" fill="#737373"/>
<path d="M21.4115 2H19.0684C18.7449 2 18.4827 2.26227 18.4827 2.58578C18.4827 2.9093 18.7449 3.17156 19.0684 3.17156H20.8258V4.96793C20.8258 5.29145 21.088 5.55371 21.4115 5.55371C21.7351 5.55371 21.9973 5.29145 21.9973 4.96793V2.58578C21.9973 2.26227 21.7351 2 21.4115 2Z" fill="#737373"/>
<path d="M4.9318 20.8228H3.17449V19.0265C3.17449 18.7029 2.91223 18.4407 2.58871 18.4407C2.2652 18.4407 2.00293 18.7029 2.00293 19.0265V21.4086C2.00293 21.7321 2.26516 21.9944 2.58871 21.9944H4.9318C5.25531 21.9944 5.51758 21.7321 5.51758 21.4086C5.51758 21.0851 5.25531 20.8228 4.9318 20.8228Z" fill="#737373"/>
<path d="M21.4115 18.4407C21.088 18.4407 20.8258 18.7029 20.8258 19.0265V20.8228H19.0684C18.7449 20.8228 18.4827 21.0851 18.4827 21.4086C18.4827 21.7321 18.7449 21.9944 19.0684 21.9944H21.4115C21.7351 21.9944 21.9973 21.7321 21.9973 21.4086V19.0265C21.9973 18.7029 21.7351 18.4407 21.4115 18.4407Z" fill="#737373"/>
<path d="M20.4522 6.8056L12.2939 2.07896C12.1123 1.97372 11.8882 1.97372 11.7066 2.07896L3.54491 6.80556C3.36499 6.90982 3.25269 7.10392 3.25269 7.31205C3.25269 7.31322 3.2528 7.31439 3.2528 7.31552V16.6876C3.2528 16.8977 3.36698 17.0943 3.55085 17.1978L11.7066 21.9211C11.7944 21.972 11.899 22 12.0003 22C12.106 22 12.2093 21.9701 12.2939 21.9211L20.4464 17.1978C20.4477 17.197 20.4491 17.1962 20.4504 17.1954C20.6394 17.0591 20.7412 16.9446 20.7441 16.6946C20.7441 16.6923 20.7443 16.69 20.7443 16.6876V7.3156C20.7443 7.31443 20.7444 7.31326 20.7444 7.31212C20.7444 7.1038 20.632 6.90966 20.4522 6.8056ZM11.4144 20.3979L5.01499 16.6902L9.94855 13.861C10.2292 13.7 10.3262 13.342 10.1653 13.0614C10.0044 12.7808 9.6464 12.6838 9.36574 12.8447L4.42425 15.6764V8.32458L11.4144 12.339V20.3979ZM12.0002 11.3245L5.01413 7.31037L12.0002 3.26279L18.9863 7.31037L12.0002 11.3245ZM19.5766 15.6764L14.6347 12.8447C14.3541 12.6838 13.9961 12.7807 13.8352 13.0614C13.6742 13.342 13.7712 13.7 14.0519 13.8609L18.9855 16.6901L12.586 20.3978V12.339L19.5765 8.32458V15.6764H19.5766Z" fill="#737373"/>
</svg>
