<svg width="24" height="24" viewBox="0 0 24 24" fill="none" xmlns="http://www.w3.org/2000/svg">
<path d="M20 2H4C3.4713 2.00264 2.96516 2.21452 2.59225 2.58931C2.21933 2.9641 2.00999 3.4713 2.01 4L2 22L6 18H20C20.5299 17.9984 21.0377 17.7872 21.4125 17.4125C21.7872 17.0377 21.9984 16.5299 22 16V4C21.9984 3.47005 21.7872 2.96227 21.4125 2.58753C21.0377 2.2128 20.5299 2.00158 20 2ZM8 14H6V12H8V14ZM8 11H6V9H8V11ZM8 8H6V6H8V8ZM15 14H10V12H15V14ZM18 11H10V9H18V11ZM18 8H10V6H18V8Z" fill="#737373"/>
</svg>
