<svg width="46" height="24" viewBox="0 0 46 24" fill="none" xmlns="http://www.w3.org/2000/svg">
<path d="M12 3C8.21292 3 5.14289 6.02208 5.14289 9.75V13.784L4.33477 14.5795C4.00791 14.9013 3.91014 15.3851 4.08703 15.8055C4.26392 16.2259 4.68064 16.5 5.14289 16.5H18.8571C19.3194 16.5 19.7361 16.2259 19.913 15.8055C20.0899 15.3851 19.9921 14.9013 19.6652 14.5795L18.8571 13.784V9.75C18.8571 6.02208 15.7871 3 12 3Z" fill="#171717"/>
<path d="M12 21C10.1064 21 8.57141 19.489 8.57141 17.625H15.4285C15.4285 19.489 13.8935 21 12 21Z" fill="#171717"/>
<rect x="11.5" width="34" height="15" rx="7.5" fill="#DC2626"/>
<path d="M18.84 11.08C20.47 11.08 21.69 9.78 21.69 7.5C21.69 5.22 20.47 3.92 18.84 3.92C17.2 3.92 15.98 5.22 15.98 7.5C15.98 9.78 17.2 11.08 18.84 11.08ZM18.84 10.19C17.74 10.19 16.98 9.29 16.98 7.5C16.98 5.71 17.74 4.81 18.84 4.81C19.93 4.81 20.69 5.71 20.69 7.5C20.69 9.29 19.93 10.19 18.84 10.19ZM25.5099 11.08C27.1399 11.08 28.3599 9.78 28.3599 7.5C28.3599 5.22 27.1399 3.92 25.5099 3.92C23.8699 3.92 22.6499 5.22 22.6499 7.5C22.6499 9.78 23.8699 11.08 25.5099 11.08ZM25.5099 10.19C24.4099 10.19 23.6499 9.29 23.6499 7.5C23.6499 5.71 24.4099 4.81 25.5099 4.81C26.5999 4.81 27.3599 5.71 27.3599 7.5C27.3599 9.29 26.5999 10.19 25.5099 10.19ZM32.1798 11.08C33.8098 11.08 35.0298 9.78 35.0298 7.5C35.0298 5.22 33.8098 3.92 32.1798 3.92C30.5398 3.92 29.3198 5.22 29.3198 7.5C29.3198 9.78 30.5398 11.08 32.1798 11.08ZM32.1798 10.19C31.0798 10.19 30.3198 9.29 30.3198 7.5C30.3198 5.71 31.0798 4.81 32.1798 4.81C33.2698 4.81 34.0298 5.71 34.0298 7.5C34.0298 9.29 33.2698 10.19 32.1798 10.19ZM40.7281 7.11H38.9081V5.31H38.0681V7.11H36.2481V7.9H38.0681V9.69H38.9081V7.9H40.7281V7.11Z" fill="white"/>
</svg>
