<svg width="24" height="24" viewBox="0 0 24 24" fill="none" xmlns="http://www.w3.org/2000/svg">
<path d="M12.8569 16.2969C13.2884 16.2969 13.6382 15.9471 13.6382 15.5156C13.6382 15.0842 13.2884 14.7344 12.8569 14.7344C12.4255 14.7344 12.0757 15.0842 12.0757 15.5156C12.0757 15.9471 12.4255 16.2969 12.8569 16.2969Z" fill="#737373"/>
<path d="M15.4741 20.4375H5.74756C4.88599 20.4375 4.18506 19.7365 4.18506 18.875V12.4687C4.18506 11.6071 4.88599 10.9062 5.74756 10.9062H16.9976C17.1754 10.9062 17.3166 10.9219 17.4291 10.9541C17.8438 11.073 18.2764 10.833 18.3953 10.4183C18.5141 10.0035 18.2742 9.57094 17.8594 9.45207C17.605 9.37918 17.3231 9.34375 16.9976 9.34375H16.0586V6.58852C16.0586 4.0584 13.9558 2 11.3711 2C8.78642 2 6.68361 4.0584 6.68361 6.58852V9.34375H5.74756C4.02443 9.34375 2.62256 10.7456 2.62256 12.4688V18.875C2.62256 20.5981 4.02443 22 5.74756 22H15.4741C15.9056 22 16.2554 21.6502 16.2554 21.2188C16.2554 20.7873 15.9056 20.4375 15.4741 20.4375ZM8.24611 6.58852C8.24611 4.91996 9.64798 3.5625 11.3711 3.5625C13.0942 3.5625 14.4961 4.91996 14.4961 6.58852V9.34375H8.24611V6.58852Z" fill="#737373"/>
<path d="M9.92725 16.2969C10.3587 16.2969 10.7085 15.9471 10.7085 15.5156C10.7085 15.0842 10.3587 14.7344 9.92725 14.7344C9.49577 14.7344 9.146 15.0842 9.146 15.5156C9.146 15.9471 9.49577 16.2969 9.92725 16.2969Z" fill="#737373"/>
<path d="M21.3768 14.9379C21.3597 13.4227 20.1217 12.1953 18.6025 12.1953C17.0728 12.1953 15.8281 13.4399 15.8281 14.9697C15.8281 15.4012 16.1779 15.751 16.6094 15.751C17.0409 15.751 17.3906 15.4012 17.3906 14.9697C17.3906 14.3015 17.9343 13.7578 18.6026 13.7578C19.2709 13.7578 19.8145 14.3015 19.8145 14.9697C19.8145 14.9768 19.8146 14.9839 19.8148 14.9909C19.8067 15.4693 19.5193 15.8976 19.0779 16.0861C18.3146 16.412 17.8213 17.1649 17.8213 18.0041V18.6797C17.8213 19.1112 18.1711 19.4609 18.6026 19.4609C19.0341 19.4609 19.3838 19.1112 19.3838 18.6797V18.0041C19.3838 17.7916 19.5046 17.6029 19.6914 17.5231C20.7159 17.0857 21.3777 16.0834 21.3775 14.9696C21.3775 14.9589 21.3772 14.9484 21.3768 14.9379Z" fill="#737373"/>
<path d="M18.5991 22C19.0306 22 19.3804 21.6502 19.3804 21.2188C19.3804 20.7873 19.0306 20.4375 18.5991 20.4375C18.1676 20.4375 17.8179 20.7873 17.8179 21.2188C17.8179 21.6502 18.1676 22 18.5991 22Z" fill="#737373"/>
<path d="M6.99756 16.2969C7.42903 16.2969 7.77881 15.9471 7.77881 15.5156C7.77881 15.0842 7.42903 14.7344 6.99756 14.7344C6.56609 14.7344 6.21631 15.0842 6.21631 15.5156C6.21631 15.9471 6.56609 16.2969 6.99756 16.2969Z" fill="#737373"/>
</svg>
