<svg width="24" height="24" viewBox="0 0 24 24" fill="none" xmlns="http://www.w3.org/2000/svg">
<path d="M15.2031 16.2969C15.6346 16.2969 15.9844 15.9471 15.9844 15.5156C15.9844 15.0842 15.6346 14.7344 15.2031 14.7344C14.7717 14.7344 14.4219 15.0842 14.4219 15.5156C14.4219 15.9471 14.7717 16.2969 15.2031 16.2969Z" fill="#737373"/>
<path d="M11.2968 20.4375H5.12499C4.26343 20.4375 3.56249 19.7365 3.56249 18.875V12.4688C3.56249 11.6072 4.26343 10.9063 5.12499 10.9063H16.3749C17.2365 10.9063 17.9374 11.6072 17.9374 12.4688V14.0313C17.9374 14.4627 18.2872 14.8125 18.7187 14.8125C19.1502 14.8125 19.4999 14.4627 19.4999 14.0313V12.4688C19.4999 10.7456 18.0981 9.34378 16.3749 9.34378H15.436V6.58856C15.436 4.05845 13.3332 2.00006 10.7485 2.00006C8.16384 2.00006 6.06104 4.05845 6.06104 6.58856V9.34378H5.12499C3.40187 9.34378 2 10.7456 2 12.4688V18.875C2 20.5981 3.40187 22 5.12499 22H11.2968C11.7283 22 12.0781 21.6502 12.0781 21.2187C12.0781 20.7872 11.7283 20.4375 11.2968 20.4375ZM7.62353 6.58856C7.62353 4.92001 9.0254 3.56255 10.7485 3.56255C12.4716 3.56255 13.8735 4.92001 13.8735 6.58856V9.34378H7.62353V6.58856Z" fill="#737373"/>
<path d="M21.6734 14.7242C21.3226 14.4729 20.8345 14.5538 20.5834 14.9046L16.7326 20.2835C16.6275 20.4055 16.4957 20.4318 16.425 20.4365C16.3526 20.4413 16.2132 20.4321 16.0904 20.3169L13.6018 17.8884C13.293 17.587 12.7984 17.5931 12.497 17.9018C12.1957 18.2106 12.2017 18.7052 12.5105 19.0066L15.0035 21.4395C15.0058 21.4417 15.0081 21.444 15.0105 21.4462C15.3842 21.802 15.8831 22 16.3964 22C16.4405 22 16.4847 21.9985 16.5289 21.9955C17.088 21.9583 17.6101 21.6864 17.9612 21.2496C17.9702 21.2382 17.979 21.2267 17.9875 21.2149L21.8539 15.8142C22.105 15.4633 22.0242 14.9753 21.6734 14.7242Z" fill="#737373"/>
<path d="M12.2344 16.2969C12.6658 16.2969 13.0156 15.9471 13.0156 15.5156C13.0156 15.0842 12.6658 14.7344 12.2344 14.7344C11.8029 14.7344 11.4531 15.0842 11.4531 15.5156C11.4531 15.9471 11.8029 16.2969 12.2344 16.2969Z" fill="#737373"/>
<path d="M6.375 16.2969C6.80647 16.2969 7.15624 15.9471 7.15624 15.5156C7.15624 15.0842 6.80647 14.7344 6.375 14.7344C5.94353 14.7344 5.59375 15.0842 5.59375 15.5156C5.59375 15.9471 5.94353 16.2969 6.375 16.2969Z" fill="#737373"/>
<path d="M9.30468 16.2969C9.73616 16.2969 10.0859 15.9471 10.0859 15.5156C10.0859 15.0842 9.73616 14.7344 9.30468 14.7344C8.87321 14.7344 8.52344 15.0842 8.52344 15.5156C8.52344 15.9471 8.87321 16.2969 9.30468 16.2969Z" fill="#737373"/>
</svg>
