<svg width="24" height="24" viewBox="0 0 24 24" fill="none" xmlns="http://www.w3.org/2000/svg">
<path d="M17.913 22.17H6.08696C5.53346 22.17 5.00264 21.9502 4.61126 21.5589C4.21988 21.1676 4 20.6368 4 20.0834V4.08655C4 3.53316 4.21988 3.00244 4.61126 2.61114C5.00264 2.21983 5.53346 2 6.08696 2H15.8261L20 6.1731V20.0834C20 20.6368 19.7801 21.1676 19.3887 21.5589C18.9974 21.9502 18.4665 22.17 17.913 22.17Z" fill="#CFD2FC"/>
<path d="M6.78271 6.86859H10.261V11.0417H6.78271V6.86859Z" fill="#5153FF"/>
<path d="M4 16.6058H20V20.0834C20 20.6368 19.7801 21.1675 19.3887 21.5588C18.9974 21.9501 18.4665 22.17 17.913 22.17H6.08696C5.53346 22.17 5.00264 21.9501 4.61126 21.5588C4.21988 21.1675 4 20.6368 4 20.0834V16.6058Z" fill="#5153FF"/>
<path d="M20.0001 6.1731H17.9131C17.3596 6.1731 16.8288 5.95327 16.4374 5.56197C16.046 5.17066 15.8262 4.63994 15.8262 4.08655V2L20.0001 6.1731Z" fill="#8690FA"/>
<path d="M17.2175 8.60744H11.6523C11.56 8.60744 11.4715 8.57081 11.4063 8.50559C11.3411 8.44037 11.3044 8.35192 11.3044 8.25968C11.3044 8.16745 11.3411 8.079 11.4063 8.01378C11.4715 7.94856 11.56 7.91193 11.6523 7.91193H17.2175C17.3097 7.91193 17.3982 7.94856 17.4634 8.01378C17.5287 8.079 17.5653 8.16745 17.5653 8.25968C17.5653 8.35192 17.5287 8.44037 17.4634 8.50559C17.3982 8.57081 17.3097 8.60744 17.2175 8.60744Z" fill="#8690FA"/>
<path d="M13.0436 9.99843H11.6523C11.56 9.99843 11.4715 9.9618 11.4063 9.89658C11.3411 9.83136 11.3044 9.74291 11.3044 9.65068C11.3044 9.55844 11.3411 9.46999 11.4063 9.40477C11.4715 9.33956 11.56 9.30292 11.6523 9.30292H13.0436C13.1358 9.30292 13.2243 9.33956 13.2895 9.40477C13.3548 9.46999 13.3914 9.55844 13.3914 9.65068C13.3914 9.74291 13.3548 9.83136 13.2895 9.89658C13.2243 9.9618 13.1358 9.99843 13.0436 9.99843Z" fill="#8690FA"/>
<path d="M17.2175 11.3895H11.6523C11.56 11.3895 11.4715 11.3528 11.4063 11.2876C11.3411 11.2224 11.3044 11.134 11.3044 11.0417C11.3044 10.9495 11.3411 10.861 11.4063 10.7958C11.4715 10.7306 11.56 10.694 11.6523 10.694H17.2175C17.3097 10.694 17.3982 10.7306 17.4634 10.7958C17.5287 10.861 17.5653 10.9495 17.5653 11.0417C17.5653 11.134 17.5287 11.2224 17.4634 11.2876C17.3982 11.3528 17.3097 11.3895 17.2175 11.3895Z" fill="#8690FA"/>
<path d="M14.7826 12.7805H6.78264C6.69039 12.7805 6.60192 12.7439 6.53669 12.6787C6.47146 12.6135 6.43481 12.525 6.43481 12.4328C6.43481 12.3405 6.47146 12.2521 6.53669 12.1869C6.60192 12.1217 6.69039 12.085 6.78264 12.085H14.7826C14.8749 12.085 14.9634 12.1217 15.0286 12.1869C15.0938 12.2521 15.1305 12.3405 15.1305 12.4328C15.1305 12.525 15.0938 12.6135 15.0286 12.6787C14.9634 12.7439 14.8749 12.7805 14.7826 12.7805Z" fill="#8690FA"/>
<path d="M17.2173 9.99843H14.4347C14.3425 9.99843 14.254 9.9618 14.1888 9.89658C14.1236 9.83136 14.0869 9.74291 14.0869 9.65068C14.0869 9.55844 14.1236 9.46999 14.1888 9.40477C14.254 9.33956 14.3425 9.30292 14.4347 9.30292H17.2173C17.3096 9.30292 17.3981 9.33956 17.4633 9.40477C17.5285 9.46999 17.5652 9.55844 17.5652 9.65068C17.5652 9.74291 17.5285 9.83136 17.4633 9.89658C17.3981 9.9618 17.3096 9.99843 17.2173 9.99843Z" fill="#8690FA"/>
<path d="M17.2175 12.7805H16.174C16.0817 12.7805 15.9933 12.7439 15.928 12.6787C15.8628 12.6135 15.8262 12.525 15.8262 12.4328C15.8262 12.3405 15.8628 12.2521 15.928 12.1869C15.9933 12.1217 16.0817 12.085 16.174 12.085H17.2175C17.3097 12.085 17.3982 12.1217 17.4634 12.1869C17.5287 12.2521 17.5653 12.3405 17.5653 12.4328C17.5653 12.525 17.5287 12.6135 17.4634 12.6787C17.3982 12.7439 17.3097 12.7805 17.2175 12.7805Z" fill="#8690FA"/>
<path d="M8.8696 14.1715H6.78264C6.69039 14.1715 6.60192 14.1349 6.53669 14.0697C6.47146 14.0045 6.43481 13.916 6.43481 13.8238C6.43481 13.7315 6.47146 13.6431 6.53669 13.5779C6.60192 13.5127 6.69039 13.476 6.78264 13.476H8.8696C8.96185 13.476 9.05032 13.5127 9.11555 13.5779C9.18078 13.6431 9.21742 13.7315 9.21742 13.8238C9.21742 13.916 9.18078 14.0045 9.11555 14.0697C9.05032 14.1349 8.96185 14.1715 8.8696 14.1715Z" fill="#8690FA"/>
<path d="M13.7392 14.1715H10.2609C10.1687 14.1715 10.0802 14.1349 10.015 14.0697C9.94973 14.0045 9.91309 13.916 9.91309 13.8238C9.91309 13.7315 9.94973 13.6431 10.015 13.5779C10.0802 13.5127 10.1687 13.476 10.2609 13.476H13.7392C13.8314 13.476 13.9199 13.5127 13.9851 13.5779C14.0504 13.6431 14.087 13.7315 14.087 13.8238C14.087 13.916 14.0504 14.0045 13.9851 14.0697C13.9199 14.1349 13.8314 14.1715 13.7392 14.1715Z" fill="#8690FA"/>
<path d="M17.2175 14.1715H15.1305C15.0383 14.1715 14.9498 14.1349 14.8846 14.0697C14.8194 14.0045 14.7827 13.916 14.7827 13.8238C14.7827 13.7315 14.8194 13.6431 14.8846 13.5779C14.9498 13.5127 15.0383 13.476 15.1305 13.476H17.2175C17.3097 13.476 17.3982 13.5127 17.4634 13.5779C17.5287 13.6431 17.5653 13.7315 17.5653 13.8238C17.5653 13.916 17.5287 14.0045 17.4634 14.0697C17.3982 14.1349 17.3097 14.1715 17.2175 14.1715Z" fill="#8690FA"/>
<path d="M14.4349 7.21639H11.6523C11.56 7.21639 11.4715 7.17975 11.4063 7.11454C11.3411 7.04932 11.3044 6.96086 11.3044 6.86863C11.3044 6.7764 11.3411 6.68795 11.4063 6.62273C11.4715 6.55751 11.56 6.52087 11.6523 6.52087H14.4349C14.5271 6.52087 14.6156 6.55751 14.6808 6.62273C14.7461 6.68795 14.7827 6.7764 14.7827 6.86863C14.7827 6.96086 14.7461 7.04932 14.6808 7.11454C14.6156 7.17975 14.5271 7.21639 14.4349 7.21639Z" fill="#8690FA"/>
<path d="M15.4781 17.6491H14.0868C13.9946 17.6491 13.9061 17.6857 13.8409 17.751C13.7757 17.8162 13.739 17.9046 13.739 17.9969V20.7789C13.739 20.8712 13.7757 20.9596 13.8409 21.0248C13.9061 21.0901 13.9946 21.1267 14.0868 21.1267C14.1791 21.1267 14.2676 21.0901 14.3328 21.0248C14.398 20.9596 14.4347 20.8712 14.4347 20.7789V19.7357H14.7825C14.8747 19.7357 14.9632 19.699 15.0284 19.6338C15.0937 19.5686 15.1303 19.4801 15.1303 19.3879C15.1303 19.2957 15.0937 19.2072 15.0284 19.142C14.9632 19.0768 14.8747 19.0401 14.7825 19.0401H14.4347V18.3446H15.4781C15.5704 18.3446 15.6589 18.308 15.7241 18.2428C15.7893 18.1776 15.826 18.0891 15.826 17.9969C15.826 17.9046 15.7893 17.8162 15.7241 17.751C15.6589 17.6857 15.5704 17.6491 15.4781 17.6491Z" fill="white"/>
<path d="M9.21731 17.6491H8.52165C8.42941 17.6491 8.34093 17.6857 8.2757 17.751C8.21047 17.8162 8.17383 17.9046 8.17383 17.9969V20.7789C8.17383 20.8712 8.21047 20.9596 8.2757 21.0248C8.34093 21.0901 8.42941 21.1267 8.52165 21.1267C8.6139 21.1267 8.70237 21.0901 8.7676 21.0248C8.83283 20.9596 8.86948 20.8712 8.86948 20.7789V19.7357H9.21731C9.49405 19.7357 9.75947 19.6257 9.95516 19.4301C10.1508 19.2344 10.2608 18.9691 10.2608 18.6924C10.2608 18.4157 10.1508 18.1503 9.95516 17.9547C9.75947 17.759 9.49405 17.6491 9.21731 17.6491ZM9.21731 19.0401H8.86948V18.3446H9.21731C9.30956 18.3446 9.39803 18.3813 9.46326 18.4465C9.52849 18.5117 9.56513 18.6002 9.56513 18.6924C9.56513 18.7846 9.52849 18.8731 9.46326 18.9383C9.39803 19.0035 9.30956 19.0401 9.21731 19.0401Z" fill="white"/>
<path d="M11.3044 17.6491C11.2121 17.6491 11.1236 17.6857 11.0584 17.751C10.9932 17.8162 10.9565 17.9046 10.9565 17.9969V20.7789C10.9565 20.8712 10.9932 20.9596 11.0584 21.0248C11.1236 21.0901 11.2121 21.1267 11.3044 21.1267C11.7656 21.1267 12.208 20.9435 12.5341 20.6174C12.8603 20.2913 13.0435 19.8491 13.0435 19.3879C13.0435 18.9267 12.8603 18.4845 12.5341 18.1584C12.208 17.8323 11.7656 17.6491 11.3044 17.6491ZM11.6522 20.3716V18.4042C11.8557 18.4761 12.0319 18.6093 12.1565 18.7855C12.2811 18.9617 12.348 19.1721 12.348 19.3879C12.348 19.6037 12.2811 19.8142 12.1565 19.9903C12.0319 20.1665 11.8557 20.2997 11.6522 20.3716Z" fill="white"/>
</svg>
