<svg width="24" height="24" viewBox="0 0 24 24" fill="none" xmlns="http://www.w3.org/2000/svg">
<path d="M2.88469 18.4425H21.1559V20.25H2.88469V18.4425ZM21.7041 9.98471C21.6549 9.8126 21.5702 9.65127 21.4547 9.50996C21.3391 9.36865 21.1951 9.25014 21.0308 9.16119C20.8664 9.07225 20.6851 9.01463 20.497 8.99162C20.309 8.96861 20.1179 8.98067 19.9348 9.02711L14.8285 10.31L8.17356 4.5L6.33656 4.96084L10.3178 11.4398L5.53886 12.6413L3.64416 11.25L2.25 11.6024L4.00045 14.4576L4.74117 15.6592L6.27958 15.2797L11.386 13.9873L15.5692 12.9389L20.6756 11.6648C21.0461 11.5658 21.361 11.3349 21.5531 11.0211C21.7452 10.7073 21.7993 10.3355 21.7041 9.98471Z" fill="#81BEFF"/>
</svg>
