<svg width="24" height="24" viewBox="0 0 24 24" fill="none" xmlns="http://www.w3.org/2000/svg">
<path d="M17.913 22.17H6.08696C5.53346 22.17 5.00264 21.9502 4.61126 21.5589C4.21988 21.1676 4 20.6368 4 20.0834V4.08655C4 3.53316 4.21988 3.00244 4.61126 2.61114C5.00264 2.21983 5.53346 2 6.08696 2H15.8261L20 6.1731V20.0834C20 20.6368 19.7801 21.1676 19.3887 21.5589C18.9974 21.9502 18.4665 22.17 17.913 22.17Z" fill="#CFD2FC"/>
<path d="M8.52173 6.86859H15.4782V13.8238H8.52173V6.86859Z" fill="#8690FA"/>
<path d="M4 16.6058H20V20.0834C20 20.6368 19.7801 21.1675 19.3887 21.5588C18.9974 21.9501 18.4665 22.17 17.913 22.17H6.08696C5.53346 22.17 5.00264 21.9501 4.61126 21.5588C4.21988 21.1675 4 20.6368 4 20.0834V16.6058Z" fill="#5153FF"/>
<path d="M20.0001 6.1731H17.9131C17.3596 6.1731 16.8288 5.95327 16.4374 5.56197C16.046 5.17066 15.8262 4.63994 15.8262 4.08655V2L20.0001 6.1731Z" fill="#8690FA"/>
<path d="M8.52173 6.86859H9.91303V8.25963H8.52173V6.86859Z" fill="white"/>
<path d="M11.3044 6.86859H12.6957V8.25963H11.3044V6.86859Z" fill="white"/>
<path d="M14.0869 6.86859H15.4782V8.25963H14.0869V6.86859Z" fill="white"/>
<path d="M8.52173 9.6507H9.91303V11.0417H8.52173V9.6507Z" fill="white"/>
<path d="M11.3044 9.6507H12.6957V11.0417H11.3044V9.6507Z" fill="white"/>
<path d="M14.0869 9.6507H15.4782V11.0417H14.0869V9.6507Z" fill="white"/>
<path d="M8.52173 12.4327H9.91303V13.8238H8.52173V12.4327Z" fill="white"/>
<path d="M11.3044 12.4327H12.6957V13.8238H11.3044V12.4327Z" fill="white"/>
<path d="M14.0869 12.4327H15.4782V13.8238H14.0869V12.4327Z" fill="white"/>
<path d="M9.91309 11.0417H11.3044V12.4328H9.91309V11.0417Z" fill="white"/>
<path d="M12.6956 11.0417H14.0869V12.4328H12.6956V11.0417Z" fill="white"/>
<path d="M9.91309 8.25964H11.3044V9.65068H9.91309V8.25964Z" fill="white"/>
<path d="M12.6956 8.25964H14.0869V9.65068H12.6956V8.25964Z" fill="white"/>
<path d="M8.86965 17.6491H8.174C8.08175 17.6491 7.99328 17.6857 7.92805 17.751C7.86282 17.8162 7.82617 17.9046 7.82617 17.9969V20.7789C7.82617 20.8712 7.86282 20.9596 7.92805 21.0248C7.99328 21.0901 8.08175 21.1267 8.174 21.1267C8.26625 21.1267 8.35472 21.0901 8.41995 21.0248C8.48518 20.9596 8.52182 20.8712 8.52182 20.7789V19.7357H8.86965C9.1464 19.7357 9.41181 19.6257 9.6075 19.4301C9.80319 19.2344 9.91313 18.9691 9.91313 18.6924C9.91313 18.4157 9.80319 18.1503 9.6075 17.9547C9.41181 17.759 9.1464 17.6491 8.86965 17.6491ZM8.86965 19.0401H8.52182V18.3446H8.86965C8.9619 18.3446 9.05037 18.3813 9.1156 18.4465C9.18083 18.5117 9.21748 18.6002 9.21748 18.6924C9.21748 18.7846 9.18083 18.8731 9.1156 18.9383C9.05037 19.0035 8.9619 19.0401 8.86965 19.0401Z" fill="white"/>
<path d="M15.8261 19.0401H15.1305C15.0382 19.0401 14.9498 19.0768 14.8845 19.142C14.8193 19.2072 14.7827 19.2957 14.7827 19.3879C14.7827 19.4801 14.8193 19.5686 14.8845 19.6338C14.9498 19.699 15.0382 19.7357 15.1305 19.7357H15.437C15.3391 20.1363 15.0789 20.4312 14.7827 20.4312C14.4056 20.4312 14.087 19.9534 14.087 19.3879C14.087 18.8224 14.4056 18.3446 14.7827 18.3446C14.8518 18.345 14.9199 18.3606 14.9822 18.3906C15.0656 18.4299 15.1613 18.4345 15.2481 18.4033C15.2911 18.3878 15.3306 18.3641 15.3644 18.3334C15.3982 18.3027 15.4256 18.2656 15.4451 18.2243C15.4646 18.183 15.4757 18.1382 15.4779 18.0926C15.4801 18.047 15.4733 18.0014 15.4578 17.9584C15.4424 17.9154 15.4186 17.8759 15.3879 17.8421C15.3572 17.8083 15.3201 17.7809 15.2788 17.7614C15.1238 17.6876 14.9543 17.6493 14.7827 17.6491C14.0155 17.6491 13.3914 18.4291 13.3914 19.3879C13.3914 20.3467 14.0155 21.1267 14.7827 21.1267C15.5498 21.1267 16.174 20.3467 16.174 19.3879C16.174 19.2957 16.1373 19.2072 16.0721 19.142C16.0069 19.0768 15.9184 19.0401 15.8261 19.0401Z" fill="white"/>
<path d="M12.3478 17.6491C12.2555 17.6491 12.1671 17.6857 12.1018 17.751C12.0366 17.8162 11.9999 17.9046 11.9999 17.9969V19.3058L11.2676 17.8413C11.2325 17.7713 11.1748 17.7151 11.1039 17.6819C11.0329 17.6487 10.9528 17.6404 10.8765 17.6584C10.8003 17.6764 10.7324 17.7196 10.6837 17.7811C10.6351 17.8425 10.6086 17.9185 10.6086 17.9969V20.7789C10.6086 20.8712 10.6453 20.9596 10.7105 21.0248C10.7757 21.0901 10.8642 21.1267 10.9565 21.1267C11.0487 21.1267 11.1372 21.0901 11.2024 21.0248C11.2676 20.9596 11.3043 20.8712 11.3043 20.7789V19.47L12.0367 20.9345C12.0717 21.0045 12.1294 21.0607 12.2004 21.0939C12.2713 21.1271 12.3514 21.1354 12.4277 21.1174C12.5039 21.0994 12.5719 21.0562 12.6205 20.9947C12.6691 20.9333 12.6956 20.8573 12.6956 20.7789V17.9969C12.6956 17.9046 12.659 17.8162 12.5937 17.751C12.5285 17.6857 12.44 17.6491 12.3478 17.6491Z" fill="white"/>
</svg>
