<svg width="24" height="24" viewBox="0 0 24 24" fill="none" xmlns="http://www.w3.org/2000/svg">
<path d="M19.0711 4.92892C17.1823 3.04019 14.6711 2 12 2C9.3288 2 6.81766 3.04019 4.92892 4.92892C3.04019 6.81766 2 9.3288 2 12C2 14.6711 3.04019 17.1823 4.92892 19.0711C6.81766 20.9598 9.3288 22 12 22C14.6711 22 17.1823 20.9598 19.0711 19.0711C20.9598 17.1823 22 14.6711 22 12C22 9.3288 20.9598 6.81766 19.0711 4.92892ZM7.01328 19.2807C7.43152 16.8726 9.51831 15.0963 12 15.0963C14.4818 15.0963 16.5685 16.8726 16.9867 19.2807C15.5669 20.2562 13.8491 20.8281 12 20.8281C10.1509 20.8281 8.43311 20.2562 7.01328 19.2807ZM8.82037 10.7448C8.82037 8.99142 10.2468 7.56519 12 7.56519C13.7532 7.56519 15.1796 8.99158 15.1796 10.7448C15.1796 12.498 13.7532 13.9244 12 13.9244C10.2468 13.9244 8.82037 12.498 8.82037 10.7448ZM18.0017 18.4679C17.6863 17.3468 17.06 16.3297 16.182 15.5352C15.6433 15.0476 15.0302 14.663 14.3711 14.3918C15.5625 13.6147 16.3517 12.2702 16.3517 10.7448C16.3517 8.34537 14.3994 6.39331 12 6.39331C9.60056 6.39331 7.6485 8.34537 7.6485 10.7448C7.6485 12.2702 8.43768 13.6147 9.62894 14.3918C8.96991 14.663 8.35666 15.0475 7.81802 15.535C6.94019 16.3295 6.31366 17.3467 5.99826 18.4677C4.26105 16.8544 3.17188 14.5522 3.17188 12C3.17188 7.13214 7.13214 3.17188 12 3.17188C16.8679 3.17188 20.8281 7.13214 20.8281 12C20.8281 14.5523 19.739 16.8546 18.0017 18.4679Z" fill="#737373"/>
</svg>
