<svg width="24" height="24" viewBox="0 0 24 24" fill="none" xmlns="http://www.w3.org/2000/svg">
<path fill-rule="evenodd" clip-rule="evenodd" d="M12 22C17.5228 22 22 17.5228 22 12C22 6.47715 17.5228 2 12 2C6.47715 2 2 6.47715 2 12C2 17.5228 6.47715 22 12 22ZM15.5982 11.7496H17.1057C17.3202 11.7496 17.5009 11.9303 17.4852 12.1441C17.2812 14.8815 14.9683 17.0414 12.1701 16.9994C9.38471 16.9574 7.0403 14.6115 7.00055 11.8261C6.95855 8.89594 9.32922 6.49978 12.2496 6.49978V5.37482C12.2496 5.22333 12.3411 5.08608 12.4813 5.02833C12.6216 4.97059 12.7821 5.00284 12.8901 5.10933L15.14 7.35925C15.2862 7.50549 15.2862 7.74324 15.14 7.88948L12.8901 10.1394C12.7821 10.2466 12.6216 10.2789 12.4813 10.2211C12.3411 10.1634 12.2496 10.0262 12.2496 9.87466V8.7497C10.3642 8.7497 8.87923 10.4986 9.33146 12.4598C9.58121 13.542 10.4609 14.4202 11.5439 14.6685C13.3813 15.0892 15.0305 13.812 15.2292 12.0976C15.2517 11.9033 15.4025 11.7496 15.5982 11.7496Z" fill="#737373"/>
</svg>
