<svg width="24" height="24" viewBox="0 0 24 24" fill="none" xmlns="http://www.w3.org/2000/svg">
<path fill-rule="evenodd" clip-rule="evenodd" d="M8.29289 3.49999L7.14645 2.35355L7.85355 1.64644L9.85355 3.64644L10.2071 3.99999L9.85355 4.35355L7.85355 6.35355L7.14645 5.64644L8.29289 4.49999L6.5 4.49999H5.5C4.67157 4.49999 4 5.17156 4 5.99999V9.99999H3V5.99999C3 4.61928 4.11929 3.49999 5.5 3.49999L6.5 3.49999L8.29289 3.49999ZM9.5 19V11L19.5 11L19.5 19H9.5ZM7.5 11V9.00002H9.5L19.5 9.00001H21.5V11V19V21H19.5H9.5H7.5L7.5 19V11Z" fill="#737373"/>
</svg>
