<svg width="24" height="24" viewBox="0 0 24 24" fill="none" xmlns="http://www.w3.org/2000/svg">
<path fill-rule="evenodd" clip-rule="evenodd" d="M16.2071 3.49999L17.3536 2.35355L16.6464 1.64644L14.6464 3.64644L14.2929 3.99999L14.6464 4.35355L16.6464 6.35355L17.3536 5.64644L16.2071 4.49999L18 4.49999H19C19.8284 4.49999 20.5 5.17156 20.5 5.99999V9.99999H21.5V5.99999C21.5 4.61928 20.3807 3.49999 19 3.49999L18 3.49999L16.2071 3.49999ZM15 19V11L5 11L5 19H15ZM17 11V9.00002H15L5 9.00001H3V11V19V21H5H15H17L17 19V11Z" fill="#737373"/>
</svg>
