<svg width="24" height="24" viewBox="0 0 24 24" fill="none" xmlns="http://www.w3.org/2000/svg">
<path d="M16.998 22.0005V19.9995H19.998V16.9995H21.9975V20.499C21.979 20.8908 21.8149 21.2617 21.5376 21.539C21.2602 21.8164 20.8894 21.9804 20.4975 21.999L16.998 22.0005ZM6.99755 22.0005H3.49805C3.30264 21.9981 3.10976 21.956 2.93109 21.8768C2.75241 21.7977 2.59165 21.6831 2.45855 21.54C2.31546 21.4069 2.20088 21.2461 2.12173 21.0675C2.04257 20.8888 2.0005 20.6959 1.99805 20.5005V16.9995H4.00055V19.9995H7.00055L6.99755 22.0005ZM16.998 1.99951H20.4975C20.693 2.00196 20.8858 2.04404 21.0645 2.12319C21.2432 2.20234 21.4039 2.31693 21.537 2.46001C21.6801 2.59312 21.7947 2.75388 21.8739 2.93255C21.953 3.11123 21.9951 3.3041 21.9975 3.49951V7.00051H19.998V4.00051H16.998V1.99951ZM6.99755 1.99951V4.00051H3.99755V7.00051H1.99805V3.49951C2.0005 3.3041 2.04257 3.11123 2.12173 2.93255C2.20088 2.75388 2.31546 2.59312 2.45855 2.46001C2.59165 2.31693 2.75241 2.20234 2.93109 2.12319C3.10976 2.04404 3.30264 2.00196 3.49805 1.99951H6.99755ZM12.9975 17.25L16.998 14.9505V10.3605L13.0005 12.66L12.9975 17.25ZM11.997 10.92L16.0005 8.63701L12 6.28051L7.99805 8.63701L11.997 10.92ZM7.00055 14.9505L10.998 17.25V12.66L7.00055 10.3605V14.9505ZM18.231 7.58701C18.4658 7.71791 18.6611 7.90948 18.7965 8.14169C18.9318 8.37391 19.0023 8.63823 19.0005 8.90701V15.237C19.0023 15.5058 18.9318 15.7701 18.7965 16.0023C18.6611 16.2345 18.4658 16.4261 18.231 16.557L12.75 19.737C12.5311 19.8932 12.2689 19.9771 12 19.9771C11.7311 19.9771 11.469 19.8932 11.25 19.737L5.77055 16.557C5.53522 16.4265 5.33934 16.2351 5.20342 16.0029C5.06751 15.7706 4.99657 15.5061 4.99805 15.237V8.91001C4.99628 8.64123 5.06676 8.37691 5.20213 8.14469C5.3375 7.91248 5.53278 7.72091 5.76755 7.59001L11.247 4.41001C11.4774 4.28529 11.7351 4.21998 11.997 4.21998C12.259 4.21998 12.5167 4.28529 12.747 4.41001L18.231 7.58701Z" fill="#737373"/>
</svg>
