<svg width="24" height="24" viewBox="0 0 24 24" fill="none" xmlns="http://www.w3.org/2000/svg">
<path fill-rule="evenodd" clip-rule="evenodd" d="M12.8967 3.05738C12.7283 2.71607 12.3806 2.5 12 2.5C11.6194 2.5 11.2718 2.71607 11.1033 3.05738L8.55477 8.22047L2.8554 9.05351C2.47884 9.10855 2.16616 9.37256 2.04878 9.73457C1.93141 10.0966 2.02968 10.4938 2.3023 10.7594L6.42551 14.7754L5.45242 20.449C5.38807 20.8241 5.54232 21.2033 5.8503 21.4271C6.15827 21.6508 6.56656 21.6803 6.90348 21.5031L12 18.8228L17.0966 21.5031C17.4335 21.6803 17.8418 21.6508 18.1498 21.4271C18.4577 21.2033 18.612 20.8241 18.5476 20.449L17.5746 14.7754L21.6978 10.7594C21.9704 10.4938 22.0687 10.0966 21.9513 9.73457C21.8339 9.37256 21.5212 9.10855 21.1447 9.05351L15.4453 8.22047L12.8967 3.05738Z" fill="#737373"/>
<path d="M12 3.5L14.781 9.134L21 10.043L16.5 14.426L17.562 20.618L12 17.693L6.438 20.618L7.5 14.426L3 10.043L9.219 9.134L12 3.5Z" stroke="#737373" stroke-width="2" stroke-linecap="round" stroke-linejoin="round"/>
<path fill-rule="evenodd" clip-rule="evenodd" d="M12 2.5C11.6194 2.5 11.2718 2.71607 11.1033 3.05738L8.55477 8.22047L2.8554 9.05351C2.47884 9.10855 2.16616 9.37256 2.04878 9.73457C1.93141 10.0966 2.02968 10.4938 2.3023 10.7594L6.42551 14.7754L5.45242 20.449C5.38807 20.8241 5.54232 21.2033 5.8503 21.4271C6.15827 21.6508 6.56656 21.6803 6.90348 21.5031L12 18.8228V2.5Z" fill="#737373"/>
</svg>
