<svg width="24" height="24" viewBox="0 0 24 24" fill="none" xmlns="http://www.w3.org/2000/svg">
<path fill-rule="evenodd" clip-rule="evenodd" d="M12 20.3333C16.6024 20.3333 20.3333 16.6024 20.3333 12C20.3333 7.39763 16.6024 3.66667 12 3.66667C7.39763 3.66667 3.66667 7.39763 3.66667 12C3.66667 16.6024 7.39763 20.3333 12 20.3333ZM12 22C17.5228 22 22 17.5228 22 12C22 6.47715 17.5228 2 12 2C6.47715 2 2 6.47715 2 12C2 17.5228 6.47715 22 12 22ZM17 15V17H7V15H17ZM11.9998 5.5L15.7526 9.29167H13.4443V13.4445H10.5554V9.29167H8.24707L11.9998 5.5Z" fill="#737373"/>
</svg>
