<svg width="24" height="24" viewBox="0 0 24 24" fill="none" xmlns="http://www.w3.org/2000/svg">
<path d="M17.913 22.1739H6.08696C5.53346 22.1739 5.00264 21.954 4.61126 21.5627C4.21988 21.1713 4 20.6405 4 20.087V4.08696C4 3.53346 4.21988 3.00264 4.61126 2.61126C5.00264 2.21988 5.53346 2 6.08696 2H15.8261L20 6.17391V20.087C20 20.6405 19.7801 21.1713 19.3887 21.5627C18.9974 21.954 18.4665 22.1739 17.913 22.1739Z" fill="#CFD2FC"/>
<path d="M7.82617 2H9.91313V11.7391H7.82617V2Z" fill="white"/>
<path d="M8.52173 2H9.21738V12.4348H8.52173V2Z" fill="#5153FF"/>
<path d="M4 16.6087H20V20.087C20 20.6405 19.7801 21.1713 19.3887 21.5627C18.9974 21.954 18.4665 22.1739 17.913 22.1739H6.08696C5.53346 22.1739 5.00264 21.954 4.61126 21.5627C4.21988 21.1713 4 20.6405 4 20.087V16.6087Z" fill="#5153FF"/>
<path d="M20.0001 6.17391H17.9131C17.3596 6.17391 16.8288 5.95404 16.4374 5.56266C16.046 5.17128 15.8262 4.64045 15.8262 4.08696V2L20.0001 6.17391Z" fill="#8690FA"/>
<path d="M9.91305 3.73911H7.8261C7.73385 3.73911 7.64538 3.70246 7.58015 3.63723C7.51492 3.572 7.47827 3.48353 7.47827 3.39128C7.47827 3.29903 7.51492 3.21056 7.58015 3.14533C7.64538 3.0801 7.73385 3.04346 7.8261 3.04346H9.91305C10.0053 3.04346 10.0938 3.0801 10.159 3.14533C10.2242 3.21056 10.2609 3.29903 10.2609 3.39128C10.2609 3.48353 10.2242 3.572 10.159 3.63723C10.0938 3.70246 10.0053 3.73911 9.91305 3.73911Z" fill="#8690FA"/>
<path d="M9.91305 5.13041H7.8261C7.73385 5.13041 7.64538 5.09376 7.58015 5.02853C7.51492 4.9633 7.47827 4.87483 7.47827 4.78258C7.47827 4.69033 7.51492 4.60186 7.58015 4.53663C7.64538 4.4714 7.73385 4.43475 7.8261 4.43475H9.91305C10.0053 4.43475 10.0938 4.4714 10.159 4.53663C10.2242 4.60186 10.2609 4.69033 10.2609 4.78258C10.2609 4.87483 10.2242 4.9633 10.159 5.02853C10.0938 5.09376 10.0053 5.13041 9.91305 5.13041Z" fill="#8690FA"/>
<path d="M9.91305 6.52176H7.8261C7.73385 6.52176 7.64538 6.48512 7.58015 6.41989C7.51492 6.35466 7.47827 6.26619 7.47827 6.17394C7.47827 6.08169 7.51492 5.99322 7.58015 5.92799C7.64538 5.86276 7.73385 5.82611 7.8261 5.82611H9.91305C10.0053 5.82611 10.0938 5.86276 10.159 5.92799C10.2242 5.99322 10.2609 6.08169 10.2609 6.17394C10.2609 6.26619 10.2242 6.35466 10.159 6.41989C10.0938 6.48512 10.0053 6.52176 9.91305 6.52176Z" fill="#8690FA"/>
<path d="M9.91305 7.91306H7.8261C7.73385 7.91306 7.64538 7.87641 7.58015 7.81118C7.51492 7.74595 7.47827 7.65748 7.47827 7.56523C7.47827 7.47298 7.51492 7.38451 7.58015 7.31928C7.64538 7.25405 7.73385 7.21741 7.8261 7.21741H9.91305C10.0053 7.21741 10.0938 7.25405 10.159 7.31928C10.2242 7.38451 10.2609 7.47298 10.2609 7.56523C10.2609 7.65748 10.2242 7.74595 10.159 7.81118C10.0938 7.87641 10.0053 7.91306 9.91305 7.91306Z" fill="#8690FA"/>
<path d="M9.91305 9.30436H7.8261C7.73385 9.30436 7.64538 9.26771 7.58015 9.20248C7.51492 9.13725 7.47827 9.04878 7.47827 8.95653C7.47827 8.86428 7.51492 8.77581 7.58015 8.71058C7.64538 8.64535 7.73385 8.6087 7.8261 8.6087H9.91305C10.0053 8.6087 10.0938 8.64535 10.159 8.71058C10.2242 8.77581 10.2609 8.86428 10.2609 8.95653C10.2609 9.04878 10.2242 9.13725 10.159 9.20248C10.0938 9.26771 10.0053 9.30436 9.91305 9.30436Z" fill="#8690FA"/>
<path d="M9.91305 10.6957H7.8261C7.73385 10.6957 7.64538 10.659 7.58015 10.5938C7.51492 10.5285 7.47827 10.4401 7.47827 10.3478C7.47827 10.2556 7.51492 10.1671 7.58015 10.1019C7.64538 10.0366 7.73385 10 7.8261 10H9.91305C10.0053 10 10.0938 10.0366 10.159 10.1019C10.2242 10.1671 10.2609 10.2556 10.2609 10.3478C10.2609 10.4401 10.2242 10.5285 10.159 10.5938C10.0938 10.659 10.0053 10.6957 9.91305 10.6957Z" fill="#8690FA"/>
<path d="M9.48339 12.8034L9.21731 11.7391H8.52165L8.25557 12.8034C8.19908 12.9094 8.171 13.0283 8.17405 13.1483C8.17711 13.2684 8.21121 13.3856 8.27302 13.4886C8.33483 13.5916 8.42226 13.6768 8.52678 13.736C8.63131 13.7952 8.74937 13.8263 8.86948 13.8263C8.98959 13.8263 9.10766 13.7952 9.21218 13.736C9.3167 13.6768 9.40413 13.5916 9.46594 13.4886C9.52775 13.3856 9.56185 13.2684 9.56491 13.1483C9.56797 13.0283 9.53988 12.9094 9.48339 12.8034Z" fill="#8690FA"/>
<path d="M12.6957 18.3478C12.7879 18.3478 12.8764 18.3112 12.9416 18.2459C13.0069 18.1807 13.0435 18.0922 13.0435 18C13.0435 17.9077 13.0069 17.8193 12.9416 17.754C12.8764 17.6888 12.7879 17.6522 12.6957 17.6522H11.3044C11.2121 17.6522 11.1236 17.6888 11.0584 17.754C10.9932 17.8193 10.9565 17.9077 10.9565 18C10.9565 18.0922 10.9932 18.1807 11.0584 18.2459C11.1236 18.3112 11.2121 18.3478 11.3044 18.3478H11.6522V20.4348H11.3044C11.2121 20.4348 11.1236 20.4714 11.0584 20.5366C10.9932 20.6019 10.9565 20.6903 10.9565 20.7826C10.9565 20.8748 10.9932 20.9633 11.0584 21.0285C11.1236 21.0938 11.2121 21.1304 11.3044 21.1304H12.6957C12.7879 21.1304 12.8764 21.0938 12.9416 21.0285C13.0069 20.9633 13.0435 20.8748 13.0435 20.7826C13.0435 20.6903 13.0069 20.6019 12.9416 20.5366C12.8764 20.4714 12.7879 20.4348 12.6957 20.4348H12.3478V18.3478H12.6957Z" fill="white"/>
<path d="M14.7825 17.6522H14.0868C13.9946 17.6522 13.9061 17.6888 13.8409 17.754C13.7757 17.8193 13.739 17.9077 13.739 18V20.7826C13.739 20.8748 13.7757 20.9633 13.8409 21.0285C13.9061 21.0938 13.9946 21.1304 14.0868 21.1304C14.1791 21.1304 14.2676 21.0938 14.3328 21.0285C14.398 20.9633 14.4347 20.8748 14.4347 20.7826V19.7391H14.7825C15.0592 19.7391 15.3247 19.6292 15.5203 19.4335C15.716 19.2378 15.826 18.9724 15.826 18.6956C15.826 18.4189 15.716 18.1535 15.5203 17.9578C15.3247 17.7621 15.0592 17.6522 14.7825 17.6522ZM14.7825 19.0435H14.4347V18.3478H14.7825C14.8747 18.3478 14.9632 18.3845 15.0284 18.4497C15.0937 18.5149 15.1303 18.6034 15.1303 18.6956C15.1303 18.7879 15.0937 18.8764 15.0284 18.9416C14.9632 19.0068 14.8747 19.0435 14.7825 19.0435Z" fill="white"/>
<path d="M9.91296 20.4348H9.08444L10.224 18.1556C10.2506 18.1025 10.2631 18.0436 10.2604 17.9844C10.2578 17.9251 10.24 17.8676 10.2088 17.8171C10.1777 17.7667 10.1341 17.7251 10.0823 17.6962C10.0306 17.6673 9.97225 17.6522 9.91296 17.6522H8.52165C8.42941 17.6522 8.34093 17.6888 8.2757 17.754C8.21047 17.8193 8.17383 17.9077 8.17383 18C8.17383 18.0922 8.21047 18.1807 8.2757 18.2459C8.34093 18.3112 8.42941 18.3478 8.52165 18.3478H9.35018L8.21057 20.627C8.18405 20.6801 8.17153 20.739 8.17419 20.7982C8.17685 20.8574 8.19461 20.915 8.22578 20.9654C8.25695 21.0159 8.30049 21.0575 8.35228 21.0864C8.40406 21.1153 8.46236 21.1304 8.52165 21.1304H9.91296C10.0052 21.1304 10.0937 21.0938 10.1589 21.0285C10.2241 20.9633 10.2608 20.8748 10.2608 20.7826C10.2608 20.6903 10.2241 20.6019 10.1589 20.5366C10.0937 20.4714 10.0052 20.4348 9.91296 20.4348Z" fill="white"/>
</svg>
