<svg width="24" height="24" viewBox="0 0 24 24" fill="none" xmlns="http://www.w3.org/2000/svg">
<path d="M15.8703 14.3284H15.0582L14.7704 14.0508C15.8977 12.7374 16.4722 11.0384 16.3735 9.31042C16.2748 7.58244 15.5104 5.95991 14.2408 4.7835C12.9713 3.60708 11.2954 2.96828 9.56488 3.00121C7.83439 3.03414 6.18396 3.73624 4.9601 4.9601C3.73624 6.18396 3.03414 7.83439 3.00121 9.56488C2.96828 11.2954 3.60708 12.9713 4.7835 14.2408C5.95991 15.5104 7.58244 16.2748 9.31042 16.3735C11.0384 16.4722 12.7374 15.8977 14.0508 14.7704L14.3284 15.0582V15.8703L19.4683 21L21 19.4683L15.8703 14.3284ZM9.70242 14.3284C8.78749 14.3284 7.89311 14.0571 7.13238 13.5487C6.37165 13.0404 5.77873 12.318 5.4286 11.4727C5.07848 10.6274 4.98687 9.69729 5.16536 8.79994C5.34385 7.9026 5.78443 7.07833 6.43138 6.43138C7.07833 5.78443 7.9026 5.34385 8.79994 5.16536C9.69729 4.98687 10.6274 5.07848 11.4727 5.4286C12.318 5.77873 13.0404 6.37165 13.5487 7.13238C14.0571 7.89311 14.3284 8.78749 14.3284 9.70242C14.3292 10.3101 14.2101 10.912 13.9779 11.4736C13.7457 12.0353 13.405 12.5455 12.9753 12.9753C12.5455 13.405 12.0353 13.7457 11.4736 13.9779C10.912 14.2101 10.3101 14.3292 9.70242 14.3284ZM7.13245 9.18842H12.2724V10.2164H7.13245V9.18842Z" fill="#737373"/>
</svg>
