<svg width="24" height="24" viewBox="0 0 24 24" fill="none" xmlns="http://www.w3.org/2000/svg">
<path fill-rule="evenodd" clip-rule="evenodd" d="M15.0582 14.3284H15.8703L21 19.4683L19.4683 21L14.3284 15.8703V15.0582L14.0508 14.7704C12.7374 15.8977 11.0384 16.4722 9.31042 16.3735C7.58244 16.2748 5.95991 15.5104 4.7835 14.2408C3.60708 12.9713 2.96828 11.2954 3.00121 9.56488C3.03414 7.83439 3.73624 6.18396 4.9601 4.9601C6.18396 3.73624 7.83439 3.03414 9.56488 3.00121C11.2954 2.96828 12.9713 3.60708 14.2408 4.7835C15.5104 5.95991 16.2748 7.58244 16.3735 9.31042C16.4722 11.0384 15.8977 12.7374 14.7704 14.0508L15.0582 14.3284ZM7.13238 13.5487C7.89311 14.0571 8.78749 14.3284 9.70242 14.3284C10.3101 14.3292 10.912 14.2101 11.4736 13.9779C12.0353 13.7457 12.5455 13.405 12.9753 12.9753C13.405 12.5455 13.7457 12.0353 13.9779 11.4736C14.2101 10.912 14.3292 10.3101 14.3284 9.70242C14.3284 8.78749 14.0571 7.89311 13.5487 7.13238C13.0404 6.37165 12.318 5.77873 11.4727 5.4286C10.6274 5.07848 9.69729 4.98687 8.79994 5.16536C7.9026 5.34385 7.07833 5.78443 6.43138 6.43138C5.78443 7.07833 5.34385 7.9026 5.16536 8.79994C4.98687 9.69729 5.07848 10.6274 5.4286 11.4727C5.77873 12.318 6.37165 13.0404 7.13238 13.5487ZM10.2164 10.2164H12.2723V9.18839H10.2164V7.13241H9.18839V9.18839H7.13241V10.2164H9.18839V12.2723H10.2164V10.2164Z" fill="#737373"/>
</svg>
